G04 #@! TF.FileFunction,Copper,L2,Bot,Signal*
%FSLAX46Y46*%
G04 Gerber Fmt 4.6, Leading zero omitted, Abs format (unit mm)*
G04 Created by KiCad (PCBNEW 4.0.6) date Saturday, May 27, 2017 'AMt' 11:31:39 AM*
%MOMM*%
%LPD*%
G01*
G04 APERTURE LIST*
%ADD10C,0.100000*%
%ADD11C,1.400000*%
%ADD12C,1.651000*%
%ADD13R,1.651000X1.651000*%
%ADD14C,1.500000*%
%ADD15C,3.000000*%
%ADD16R,1.700000X1.700000*%
%ADD17O,1.700000X1.700000*%
%ADD18C,1.600000*%
%ADD19O,1.600000X1.600000*%
%ADD20C,2.286000*%
%ADD21C,0.600000*%
%ADD22C,0.400000*%
%ADD23C,0.250000*%
G04 APERTURE END LIST*
D10*
D11*
X157696000Y-238062000D03*
X160196000Y-238062000D03*
X157696000Y-234760000D03*
X160196000Y-234760000D03*
X135090000Y-228410000D03*
X132590000Y-228410000D03*
D12*
X48730000Y-164910000D03*
D13*
X48730000Y-157290000D03*
D12*
X67780000Y-164910000D03*
D13*
X67780000Y-157290000D03*
D12*
X86830000Y-164910000D03*
D13*
X86830000Y-157290000D03*
D12*
X105880000Y-164910000D03*
D13*
X105880000Y-157290000D03*
D12*
X124930000Y-164910000D03*
D13*
X124930000Y-157290000D03*
D12*
X143980000Y-164910000D03*
D13*
X143980000Y-157290000D03*
D12*
X163030000Y-164910000D03*
D13*
X163030000Y-157290000D03*
D12*
X182080000Y-164910000D03*
D13*
X182080000Y-157290000D03*
D12*
X201130000Y-164910000D03*
D13*
X201130000Y-157290000D03*
D12*
X220180000Y-164910000D03*
D13*
X220180000Y-157290000D03*
D12*
X239230000Y-164910000D03*
D13*
X239230000Y-157290000D03*
D12*
X258280000Y-164910000D03*
D13*
X258280000Y-157290000D03*
D12*
X277330000Y-164910000D03*
D13*
X277330000Y-157290000D03*
D12*
X296380000Y-164910000D03*
D13*
X296380000Y-157290000D03*
D12*
X52540000Y-183960000D03*
D13*
X52540000Y-176340000D03*
D12*
X76670000Y-183960000D03*
D13*
X76670000Y-176340000D03*
D12*
X95720000Y-183960000D03*
D13*
X95720000Y-176340000D03*
D12*
X114770000Y-183960000D03*
D13*
X114770000Y-176340000D03*
D12*
X133820000Y-183960000D03*
D13*
X133820000Y-176340000D03*
D12*
X152870000Y-183960000D03*
D13*
X152870000Y-176340000D03*
D12*
X171920000Y-183960000D03*
D13*
X171920000Y-176340000D03*
D12*
X190970000Y-183960000D03*
D13*
X190970000Y-176340000D03*
D12*
X210020000Y-183960000D03*
D13*
X210020000Y-176340000D03*
D12*
X229070000Y-183960000D03*
D13*
X229070000Y-176340000D03*
D12*
X248120000Y-183960000D03*
D13*
X248120000Y-176340000D03*
D12*
X267170000Y-183960000D03*
D13*
X267170000Y-176340000D03*
D12*
X286220000Y-183960000D03*
D13*
X286220000Y-176340000D03*
D12*
X309080000Y-183960000D03*
D13*
X309080000Y-176340000D03*
D12*
X55080000Y-204280000D03*
D13*
X55080000Y-196660000D03*
D12*
X81750000Y-204280000D03*
D13*
X81750000Y-196660000D03*
D12*
X100800000Y-204280000D03*
D13*
X100800000Y-196660000D03*
D12*
X119850000Y-204280000D03*
D13*
X119850000Y-196660000D03*
D12*
X138900000Y-204280000D03*
D13*
X138900000Y-196660000D03*
D12*
X156680000Y-204280000D03*
D13*
X156680000Y-196660000D03*
D12*
X177000000Y-204280000D03*
D13*
X177000000Y-196660000D03*
D12*
X196050000Y-204280000D03*
D13*
X196050000Y-196660000D03*
D12*
X215100000Y-204280000D03*
D13*
X215100000Y-196660000D03*
D12*
X234150000Y-204280000D03*
D13*
X234150000Y-196660000D03*
D12*
X253200000Y-204280000D03*
D13*
X253200000Y-196660000D03*
D12*
X272250000Y-204280000D03*
D13*
X272250000Y-196660000D03*
D12*
X293840000Y-204280000D03*
D13*
X293840000Y-196660000D03*
D12*
X60160000Y-210630000D03*
D13*
X67780000Y-210630000D03*
D12*
X86830000Y-223330000D03*
D13*
X86830000Y-215710000D03*
D12*
X105880000Y-224600000D03*
D13*
X105880000Y-216980000D03*
D12*
X124930000Y-223330000D03*
D13*
X124930000Y-215710000D03*
D12*
X143980000Y-223330000D03*
D13*
X143980000Y-215710000D03*
D12*
X163030000Y-224600000D03*
D13*
X163030000Y-216980000D03*
D12*
X182080000Y-224600000D03*
D13*
X182080000Y-216980000D03*
D12*
X201130000Y-224600000D03*
D13*
X201130000Y-216980000D03*
D12*
X218910000Y-224600000D03*
D13*
X218910000Y-216980000D03*
D12*
X239230000Y-224600000D03*
D13*
X239230000Y-216980000D03*
D12*
X258280000Y-224600000D03*
D13*
X258280000Y-216980000D03*
D12*
X276060000Y-223330000D03*
D13*
X276060000Y-215710000D03*
D12*
X295110000Y-224600000D03*
D13*
X295110000Y-216980000D03*
D12*
X50000000Y-236030000D03*
D13*
X50000000Y-243650000D03*
D12*
X93180000Y-234760000D03*
D13*
X93180000Y-242380000D03*
D12*
X98260000Y-236030000D03*
D13*
X98260000Y-243650000D03*
D12*
X169380000Y-244920000D03*
D13*
X169380000Y-237300000D03*
D12*
X239230000Y-243650000D03*
D13*
X239230000Y-236030000D03*
D12*
X258280000Y-243650000D03*
D13*
X258280000Y-236030000D03*
D12*
X277330000Y-243650000D03*
D13*
X277330000Y-236030000D03*
D12*
X296380000Y-243650000D03*
D13*
X296380000Y-236030000D03*
D12*
X315430000Y-243650000D03*
D13*
X315430000Y-236030000D03*
D12*
X314160000Y-223330000D03*
D13*
X314160000Y-215710000D03*
D14*
X61682000Y-150940000D03*
X59142000Y-150940000D03*
X57112000Y-150940000D03*
X54572000Y-150940000D03*
D15*
X64732000Y-148270000D03*
X51012000Y-148270000D03*
D16*
X212306000Y-235268000D03*
D17*
X209766000Y-235268000D03*
X212306000Y-237808000D03*
X209766000Y-237808000D03*
X212306000Y-240348000D03*
X209766000Y-240348000D03*
D18*
X160490000Y-229680000D03*
D19*
X150330000Y-229680000D03*
D18*
X114008000Y-229680000D03*
D19*
X124168000Y-229680000D03*
D18*
X109182000Y-229680000D03*
D19*
X99022000Y-229680000D03*
D18*
X159220000Y-248730000D03*
D19*
X149060000Y-248730000D03*
D20*
X60165000Y-154920000D03*
X53815000Y-157460000D03*
X79165000Y-154920000D03*
X72815000Y-157460000D03*
X98165000Y-154920000D03*
X91815000Y-157460000D03*
X117165000Y-154920000D03*
X110815000Y-157460000D03*
X136165000Y-154920000D03*
X129815000Y-157460000D03*
X155165000Y-154920000D03*
X148815000Y-157460000D03*
X174165000Y-154920000D03*
X167815000Y-157460000D03*
X193165000Y-154920000D03*
X186815000Y-157460000D03*
X212165000Y-154920000D03*
X205815000Y-157460000D03*
X231165000Y-154920000D03*
X224815000Y-157460000D03*
X250165000Y-154920000D03*
X243815000Y-157460000D03*
X269165000Y-154920000D03*
X262815000Y-157460000D03*
X288165000Y-154920000D03*
X281815000Y-157460000D03*
X316665000Y-154920000D03*
X310315000Y-157460000D03*
X64915000Y-174920000D03*
X58565000Y-177460000D03*
X88665000Y-174920000D03*
X82315000Y-177460000D03*
X107665000Y-174920000D03*
X101315000Y-177460000D03*
X126665000Y-174920000D03*
X120315000Y-177460000D03*
X145665000Y-174920000D03*
X139315000Y-177460000D03*
X164665000Y-174920000D03*
X158315000Y-177460000D03*
X183665000Y-174920000D03*
X177315000Y-177460000D03*
X202665000Y-174920000D03*
X196315000Y-177460000D03*
X221665000Y-174920000D03*
X215315000Y-177460000D03*
X240665000Y-174920000D03*
X234315000Y-177460000D03*
X259665000Y-174920000D03*
X253315000Y-177460000D03*
X278665000Y-174920000D03*
X272315000Y-177460000D03*
X297665000Y-174920000D03*
X291315000Y-177460000D03*
X321415000Y-174920000D03*
X315065000Y-177460000D03*
X67290000Y-194920000D03*
X60940000Y-197460000D03*
X93415000Y-194920000D03*
X87065000Y-197460000D03*
X112415000Y-194920000D03*
X106065000Y-197460000D03*
X131415000Y-194920000D03*
X125065000Y-197460000D03*
X150415000Y-194920000D03*
X144065000Y-197460000D03*
X169415000Y-194920000D03*
X163065000Y-197460000D03*
X188415000Y-194920000D03*
X182065000Y-197460000D03*
X207415000Y-194920000D03*
X201065000Y-197460000D03*
X226415000Y-194920000D03*
X220065000Y-197460000D03*
X245415000Y-194920000D03*
X239065000Y-197460000D03*
X264415000Y-194920000D03*
X258065000Y-197460000D03*
X283415000Y-194920000D03*
X277065000Y-197460000D03*
X314290000Y-194920000D03*
X307940000Y-197460000D03*
X98165000Y-214920000D03*
X91815000Y-217460000D03*
X117165000Y-214920000D03*
X110815000Y-217460000D03*
X136165000Y-214920000D03*
X129815000Y-217460000D03*
X155165000Y-214920000D03*
X148815000Y-217460000D03*
X174165000Y-214920000D03*
X167815000Y-217460000D03*
X193165000Y-214920000D03*
X186815000Y-217460000D03*
X212165000Y-214920000D03*
X205815000Y-217460000D03*
X231165000Y-214920000D03*
X224815000Y-217460000D03*
X250165000Y-214920000D03*
X243815000Y-217460000D03*
X269165000Y-214920000D03*
X262815000Y-217460000D03*
X288165000Y-214920000D03*
X281815000Y-217460000D03*
X62540000Y-234920000D03*
X56190000Y-237460000D03*
X86290000Y-234920000D03*
X79940000Y-237460000D03*
X110040000Y-234920000D03*
X103690000Y-237460000D03*
X181290000Y-234920000D03*
X174940000Y-237460000D03*
X250165000Y-234920000D03*
X243815000Y-237460000D03*
X269165000Y-234920000D03*
X262815000Y-237460000D03*
X288165000Y-234920000D03*
X281815000Y-237460000D03*
X307165000Y-234920000D03*
X300815000Y-237460000D03*
X326165000Y-234920000D03*
X319815000Y-237460000D03*
X326165000Y-214920000D03*
X319815000Y-217460000D03*
D10*
G36*
X136396280Y-237032042D02*
X136785188Y-236643134D01*
X137845848Y-237703794D01*
X137456940Y-238092702D01*
X136396280Y-237032042D01*
X136396280Y-237032042D01*
G37*
G36*
X136961966Y-236466357D02*
X137350874Y-236077449D01*
X138411534Y-237138109D01*
X138022626Y-237527017D01*
X136961966Y-236466357D01*
X136961966Y-236466357D01*
G37*
G36*
X137527651Y-235900672D02*
X137916559Y-235511764D01*
X138977219Y-236572424D01*
X138588311Y-236961332D01*
X137527651Y-235900672D01*
X137527651Y-235900672D01*
G37*
G36*
X138093336Y-235334986D02*
X138482244Y-234946078D01*
X139542904Y-236006738D01*
X139153996Y-236395646D01*
X138093336Y-235334986D01*
X138093336Y-235334986D01*
G37*
G36*
X138659022Y-234769301D02*
X139047930Y-234380393D01*
X140108590Y-235441053D01*
X139719682Y-235829961D01*
X138659022Y-234769301D01*
X138659022Y-234769301D01*
G37*
G36*
X139224707Y-234203615D02*
X139613615Y-233814707D01*
X140674275Y-234875367D01*
X140285367Y-235264275D01*
X139224707Y-234203615D01*
X139224707Y-234203615D01*
G37*
G36*
X139790393Y-233637930D02*
X140179301Y-233249022D01*
X141239961Y-234309682D01*
X140851053Y-234698590D01*
X139790393Y-233637930D01*
X139790393Y-233637930D01*
G37*
G36*
X140356078Y-233072244D02*
X140744986Y-232683336D01*
X141805646Y-233743996D01*
X141416738Y-234132904D01*
X140356078Y-233072244D01*
X140356078Y-233072244D01*
G37*
G36*
X140921764Y-232506559D02*
X141310672Y-232117651D01*
X142371332Y-233178311D01*
X141982424Y-233567219D01*
X140921764Y-232506559D01*
X140921764Y-232506559D01*
G37*
G36*
X141487449Y-231940874D02*
X141876357Y-231551966D01*
X142937017Y-232612626D01*
X142548109Y-233001534D01*
X141487449Y-231940874D01*
X141487449Y-231940874D01*
G37*
G36*
X142053134Y-231375188D02*
X142442042Y-230986280D01*
X143502702Y-232046940D01*
X143113794Y-232435848D01*
X142053134Y-231375188D01*
X142053134Y-231375188D01*
G37*
G36*
X145517958Y-230986280D02*
X145906866Y-231375188D01*
X144846206Y-232435848D01*
X144457298Y-232046940D01*
X145517958Y-230986280D01*
X145517958Y-230986280D01*
G37*
G36*
X146083643Y-231551966D02*
X146472551Y-231940874D01*
X145411891Y-233001534D01*
X145022983Y-232612626D01*
X146083643Y-231551966D01*
X146083643Y-231551966D01*
G37*
G36*
X146649328Y-232117651D02*
X147038236Y-232506559D01*
X145977576Y-233567219D01*
X145588668Y-233178311D01*
X146649328Y-232117651D01*
X146649328Y-232117651D01*
G37*
G36*
X147215014Y-232683336D02*
X147603922Y-233072244D01*
X146543262Y-234132904D01*
X146154354Y-233743996D01*
X147215014Y-232683336D01*
X147215014Y-232683336D01*
G37*
G36*
X147780699Y-233249022D02*
X148169607Y-233637930D01*
X147108947Y-234698590D01*
X146720039Y-234309682D01*
X147780699Y-233249022D01*
X147780699Y-233249022D01*
G37*
G36*
X148346385Y-233814707D02*
X148735293Y-234203615D01*
X147674633Y-235264275D01*
X147285725Y-234875367D01*
X148346385Y-233814707D01*
X148346385Y-233814707D01*
G37*
G36*
X148912070Y-234380393D02*
X149300978Y-234769301D01*
X148240318Y-235829961D01*
X147851410Y-235441053D01*
X148912070Y-234380393D01*
X148912070Y-234380393D01*
G37*
G36*
X149477756Y-234946078D02*
X149866664Y-235334986D01*
X148806004Y-236395646D01*
X148417096Y-236006738D01*
X149477756Y-234946078D01*
X149477756Y-234946078D01*
G37*
G36*
X150043441Y-235511764D02*
X150432349Y-235900672D01*
X149371689Y-236961332D01*
X148982781Y-236572424D01*
X150043441Y-235511764D01*
X150043441Y-235511764D01*
G37*
G36*
X150609126Y-236077449D02*
X150998034Y-236466357D01*
X149937374Y-237527017D01*
X149548466Y-237138109D01*
X150609126Y-236077449D01*
X150609126Y-236077449D01*
G37*
G36*
X151174812Y-236643134D02*
X151563720Y-237032042D01*
X150503060Y-238092702D01*
X150114152Y-237703794D01*
X151174812Y-236643134D01*
X151174812Y-236643134D01*
G37*
G36*
X150114152Y-239436206D02*
X150503060Y-239047298D01*
X151563720Y-240107958D01*
X151174812Y-240496866D01*
X150114152Y-239436206D01*
X150114152Y-239436206D01*
G37*
G36*
X149548466Y-240001891D02*
X149937374Y-239612983D01*
X150998034Y-240673643D01*
X150609126Y-241062551D01*
X149548466Y-240001891D01*
X149548466Y-240001891D01*
G37*
G36*
X148982781Y-240567576D02*
X149371689Y-240178668D01*
X150432349Y-241239328D01*
X150043441Y-241628236D01*
X148982781Y-240567576D01*
X148982781Y-240567576D01*
G37*
G36*
X148417096Y-241133262D02*
X148806004Y-240744354D01*
X149866664Y-241805014D01*
X149477756Y-242193922D01*
X148417096Y-241133262D01*
X148417096Y-241133262D01*
G37*
G36*
X147851410Y-241698947D02*
X148240318Y-241310039D01*
X149300978Y-242370699D01*
X148912070Y-242759607D01*
X147851410Y-241698947D01*
X147851410Y-241698947D01*
G37*
G36*
X147285725Y-242264633D02*
X147674633Y-241875725D01*
X148735293Y-242936385D01*
X148346385Y-243325293D01*
X147285725Y-242264633D01*
X147285725Y-242264633D01*
G37*
G36*
X146720039Y-242830318D02*
X147108947Y-242441410D01*
X148169607Y-243502070D01*
X147780699Y-243890978D01*
X146720039Y-242830318D01*
X146720039Y-242830318D01*
G37*
G36*
X146154354Y-243396004D02*
X146543262Y-243007096D01*
X147603922Y-244067756D01*
X147215014Y-244456664D01*
X146154354Y-243396004D01*
X146154354Y-243396004D01*
G37*
G36*
X145588668Y-243961689D02*
X145977576Y-243572781D01*
X147038236Y-244633441D01*
X146649328Y-245022349D01*
X145588668Y-243961689D01*
X145588668Y-243961689D01*
G37*
G36*
X145022983Y-244527374D02*
X145411891Y-244138466D01*
X146472551Y-245199126D01*
X146083643Y-245588034D01*
X145022983Y-244527374D01*
X145022983Y-244527374D01*
G37*
G36*
X144457298Y-245093060D02*
X144846206Y-244704152D01*
X145906866Y-245764812D01*
X145517958Y-246153720D01*
X144457298Y-245093060D01*
X144457298Y-245093060D01*
G37*
G36*
X143113794Y-244704152D02*
X143502702Y-245093060D01*
X142442042Y-246153720D01*
X142053134Y-245764812D01*
X143113794Y-244704152D01*
X143113794Y-244704152D01*
G37*
G36*
X142548109Y-244138466D02*
X142937017Y-244527374D01*
X141876357Y-245588034D01*
X141487449Y-245199126D01*
X142548109Y-244138466D01*
X142548109Y-244138466D01*
G37*
G36*
X141982424Y-243572781D02*
X142371332Y-243961689D01*
X141310672Y-245022349D01*
X140921764Y-244633441D01*
X141982424Y-243572781D01*
X141982424Y-243572781D01*
G37*
G36*
X141416738Y-243007096D02*
X141805646Y-243396004D01*
X140744986Y-244456664D01*
X140356078Y-244067756D01*
X141416738Y-243007096D01*
X141416738Y-243007096D01*
G37*
G36*
X140851053Y-242441410D02*
X141239961Y-242830318D01*
X140179301Y-243890978D01*
X139790393Y-243502070D01*
X140851053Y-242441410D01*
X140851053Y-242441410D01*
G37*
G36*
X140285367Y-241875725D02*
X140674275Y-242264633D01*
X139613615Y-243325293D01*
X139224707Y-242936385D01*
X140285367Y-241875725D01*
X140285367Y-241875725D01*
G37*
G36*
X139719682Y-241310039D02*
X140108590Y-241698947D01*
X139047930Y-242759607D01*
X138659022Y-242370699D01*
X139719682Y-241310039D01*
X139719682Y-241310039D01*
G37*
G36*
X139153996Y-240744354D02*
X139542904Y-241133262D01*
X138482244Y-242193922D01*
X138093336Y-241805014D01*
X139153996Y-240744354D01*
X139153996Y-240744354D01*
G37*
G36*
X138588311Y-240178668D02*
X138977219Y-240567576D01*
X137916559Y-241628236D01*
X137527651Y-241239328D01*
X138588311Y-240178668D01*
X138588311Y-240178668D01*
G37*
G36*
X138022626Y-239612983D02*
X138411534Y-240001891D01*
X137350874Y-241062551D01*
X136961966Y-240673643D01*
X138022626Y-239612983D01*
X138022626Y-239612983D01*
G37*
G36*
X137456940Y-239047298D02*
X137845848Y-239436206D01*
X136785188Y-240496866D01*
X136396280Y-240107958D01*
X137456940Y-239047298D01*
X137456940Y-239047298D01*
G37*
D14*
X164300000Y-239840000D03*
X164300000Y-234960000D03*
D16*
X135090000Y-251270000D03*
D17*
X137630000Y-251270000D03*
X140170000Y-251270000D03*
X142710000Y-251270000D03*
X145250000Y-251270000D03*
D20*
X307165000Y-214920000D03*
X300815000Y-217460000D03*
X69665000Y-214920000D03*
X63315000Y-217460000D03*
D21*
X147536000Y-245428000D03*
X149695000Y-245555000D03*
X198082000Y-235268000D03*
X198082000Y-229680000D03*
X143345000Y-233871000D03*
X145631000Y-236157000D03*
X140805000Y-237554000D03*
X142964000Y-239713000D03*
X202273000Y-230569000D03*
X178778000Y-235522000D03*
X147282000Y-246444000D03*
X189954000Y-248730000D03*
D22*
X142710000Y-251270000D02*
X142710000Y-249492000D01*
X140805000Y-246270483D02*
X142212233Y-244863250D01*
X140805000Y-247587000D02*
X140805000Y-246270483D01*
X142710000Y-249492000D02*
X140805000Y-247587000D01*
X46190000Y-244920000D02*
X46190000Y-245301000D01*
X46190000Y-154750000D02*
X46190000Y-197930000D01*
X46190000Y-197930000D02*
X46190000Y-244920000D01*
X130010000Y-251270000D02*
X127978000Y-251270000D01*
X59904000Y-152718000D02*
X61682000Y-150940000D01*
X48222000Y-152718000D02*
X59904000Y-152718000D01*
X46190000Y-154750000D02*
X48222000Y-152718000D01*
X125311000Y-251270000D02*
X127978000Y-251270000D01*
X121120000Y-247079000D02*
X125311000Y-251270000D01*
X47968000Y-247079000D02*
X121120000Y-247079000D01*
X46190000Y-245301000D02*
X47968000Y-247079000D01*
X61682000Y-149416000D02*
X63586000Y-149416000D01*
X63586000Y-149416000D02*
X64732000Y-148270000D01*
X61682000Y-150940000D02*
X61682000Y-149416000D01*
X61682000Y-149416000D02*
X61682000Y-149414000D01*
X60538000Y-148270000D02*
X51012000Y-148270000D01*
X61682000Y-149414000D02*
X60538000Y-148270000D01*
X63588000Y-148778000D02*
X64732000Y-148778000D01*
X137686750Y-240337767D02*
X137686750Y-240291250D01*
X137686750Y-240291250D02*
X138519000Y-239459000D01*
X140828258Y-239459000D02*
X143887887Y-236399371D01*
X138519000Y-239459000D02*
X140828258Y-239459000D01*
X150838936Y-239772082D02*
X150838936Y-239713936D01*
X150838936Y-239713936D02*
X145706129Y-234581129D01*
X140678000Y-236399371D02*
X143887887Y-236399371D01*
X143887887Y-236399371D02*
X145706129Y-234581129D01*
X145706129Y-234581129D02*
X146879138Y-233408120D01*
X140678000Y-236399371D02*
X139383806Y-235105177D01*
X130010000Y-251270000D02*
X133566000Y-247714000D01*
X133566000Y-244458517D02*
X137686750Y-240337767D01*
X133566000Y-247714000D02*
X133566000Y-244458517D01*
X132590000Y-228410000D02*
X132688629Y-228410000D01*
X132688629Y-228410000D02*
X139383806Y-235105177D01*
X157696000Y-236538000D02*
X165570000Y-236538000D01*
X165570000Y-236538000D02*
X167094000Y-235014000D01*
X167094000Y-235014000D02*
X167094000Y-233490000D01*
X167094000Y-233490000D02*
X165570000Y-231966000D01*
X165570000Y-231966000D02*
X148321258Y-231966000D01*
X148321258Y-231966000D02*
X146879138Y-233408120D01*
X157696000Y-234760000D02*
X157696000Y-236538000D01*
X157696000Y-236538000D02*
X157696000Y-238062000D01*
X140170000Y-253810000D02*
X142710000Y-251270000D01*
X132550000Y-253810000D02*
X140170000Y-253810000D01*
X130010000Y-251270000D02*
X132550000Y-253810000D01*
D23*
X160196000Y-238062000D02*
X159728000Y-238062000D01*
X159728000Y-238062000D02*
X158458000Y-239332000D01*
X149060000Y-233490000D02*
X148010509Y-234539491D01*
X155156000Y-233490000D02*
X149060000Y-233490000D01*
X156172000Y-234506000D02*
X155156000Y-233490000D01*
X156172000Y-238570000D02*
X156172000Y-234506000D01*
X156934000Y-239332000D02*
X156172000Y-238570000D01*
X158458000Y-239332000D02*
X156934000Y-239332000D01*
X160196000Y-238062000D02*
X160196000Y-238276000D01*
X160196000Y-238276000D02*
X161760000Y-239840000D01*
X161760000Y-239840000D02*
X164300000Y-239840000D01*
X160196000Y-234760000D02*
X160196000Y-234212000D01*
X160196000Y-234212000D02*
X158712000Y-232728000D01*
X148690629Y-232728000D02*
X147444823Y-233973806D01*
X158712000Y-232728000D02*
X148690629Y-232728000D01*
X160196000Y-234760000D02*
X164100000Y-234760000D01*
X164100000Y-234760000D02*
X164300000Y-234960000D01*
X147444823Y-233973806D02*
X147444823Y-233835177D01*
X135090000Y-228410000D02*
X135090000Y-229680000D01*
X135090000Y-229680000D02*
X139949491Y-234539491D01*
X146405565Y-244297565D02*
X147536000Y-245428000D01*
X146313452Y-244297565D02*
X146405565Y-244297565D01*
X50000000Y-236030000D02*
X50000000Y-225870000D01*
X50000000Y-225870000D02*
X60160000Y-215710000D01*
X60160000Y-215710000D02*
X60160000Y-210630000D01*
X55080000Y-204280000D02*
X55080000Y-206820000D01*
X58890000Y-210630000D02*
X60160000Y-210630000D01*
X55080000Y-206820000D02*
X58890000Y-210630000D01*
X52540000Y-183960000D02*
X52540000Y-201740000D01*
X52540000Y-201740000D02*
X55080000Y-204280000D01*
X48730000Y-164910000D02*
X48730000Y-180150000D01*
X48730000Y-180150000D02*
X52540000Y-183960000D01*
X48730000Y-157290000D02*
X53645000Y-157290000D01*
X53645000Y-157290000D02*
X53815000Y-157460000D01*
X148806000Y-245555000D02*
X149695000Y-245555000D01*
X146982880Y-243731880D02*
X148806000Y-245555000D01*
X146879138Y-243731880D02*
X146982880Y-243731880D01*
X146879138Y-243731880D02*
X146879138Y-243755138D01*
X86830000Y-223330000D02*
X86830000Y-228410000D01*
X86830000Y-228410000D02*
X93180000Y-234760000D01*
X81750000Y-204280000D02*
X81750000Y-209360000D01*
X83020000Y-219520000D02*
X86830000Y-223330000D01*
X83020000Y-210630000D02*
X83020000Y-219520000D01*
X81750000Y-209360000D02*
X83020000Y-210630000D01*
X76670000Y-183960000D02*
X76670000Y-199200000D01*
X76670000Y-199200000D02*
X81750000Y-204280000D01*
X67780000Y-164910000D02*
X67780000Y-169990000D01*
X72860000Y-180150000D02*
X76670000Y-183960000D01*
X72860000Y-175070000D02*
X72860000Y-180150000D01*
X67780000Y-169990000D02*
X72860000Y-175070000D01*
X72815000Y-157460000D02*
X67950000Y-157460000D01*
X67950000Y-157460000D02*
X67780000Y-157290000D01*
X137121064Y-237367918D02*
X108995918Y-237367918D01*
X106896000Y-235268000D02*
X100292000Y-235268000D01*
X108995918Y-237367918D02*
X106896000Y-235268000D01*
X98260000Y-236030000D02*
X99530000Y-236030000D01*
X105880000Y-229680000D02*
X105880000Y-224600000D01*
X99530000Y-236030000D02*
X100292000Y-235268000D01*
X100292000Y-235268000D02*
X105880000Y-229680000D01*
X100800000Y-204280000D02*
X100800000Y-215710000D01*
X103340000Y-222060000D02*
X105880000Y-224600000D01*
X103340000Y-218250000D02*
X103340000Y-222060000D01*
X100800000Y-215710000D02*
X103340000Y-218250000D01*
X95720000Y-183960000D02*
X95720000Y-190310000D01*
X98260000Y-201740000D02*
X100800000Y-204280000D01*
X98260000Y-192850000D02*
X98260000Y-201740000D01*
X95720000Y-190310000D02*
X98260000Y-192850000D01*
X86830000Y-164910000D02*
X86830000Y-167450000D01*
X93180000Y-181420000D02*
X95720000Y-183960000D01*
X93180000Y-173800000D02*
X93180000Y-181420000D01*
X86830000Y-167450000D02*
X93180000Y-173800000D01*
X86830000Y-157290000D02*
X91645000Y-157290000D01*
X91645000Y-157290000D02*
X91815000Y-157460000D01*
X141080862Y-233408120D02*
X141080862Y-233384862D01*
X141080862Y-233384862D02*
X137630000Y-229934000D01*
X126962000Y-225362000D02*
X124930000Y-223330000D01*
X135598000Y-225362000D02*
X126962000Y-225362000D01*
X137630000Y-227394000D02*
X135598000Y-225362000D01*
X137630000Y-229934000D02*
X137630000Y-227394000D01*
X119850000Y-204280000D02*
X119850000Y-213170000D01*
X122390000Y-220790000D02*
X124930000Y-223330000D01*
X122390000Y-215710000D02*
X122390000Y-220790000D01*
X119850000Y-213170000D02*
X122390000Y-215710000D01*
X114770000Y-183960000D02*
X114770000Y-192850000D01*
X117310000Y-201740000D02*
X119850000Y-204280000D01*
X117310000Y-195390000D02*
X117310000Y-201740000D01*
X114770000Y-192850000D02*
X117310000Y-195390000D01*
X105880000Y-164910000D02*
X105880000Y-168720000D01*
X112230000Y-181420000D02*
X114770000Y-183960000D01*
X112230000Y-175070000D02*
X112230000Y-181420000D01*
X105880000Y-168720000D02*
X112230000Y-175070000D01*
X105880000Y-157290000D02*
X110645000Y-157290000D01*
X110645000Y-157290000D02*
X110815000Y-157460000D01*
X145182082Y-231711064D02*
X145182082Y-224532082D01*
X145182082Y-224532082D02*
X143980000Y-223330000D01*
X138900000Y-204280000D02*
X138900000Y-215710000D01*
X141440000Y-220790000D02*
X143980000Y-223330000D01*
X141440000Y-218250000D02*
X141440000Y-220790000D01*
X138900000Y-215710000D02*
X141440000Y-218250000D01*
X133820000Y-183960000D02*
X133820000Y-194120000D01*
X136360000Y-201740000D02*
X138900000Y-204280000D01*
X136360000Y-196660000D02*
X136360000Y-201740000D01*
X133820000Y-194120000D02*
X136360000Y-196660000D01*
X124930000Y-164910000D02*
X124930000Y-168720000D01*
X131280000Y-181420000D02*
X133820000Y-183960000D01*
X131280000Y-175070000D02*
X131280000Y-181420000D01*
X124930000Y-168720000D02*
X131280000Y-175070000D01*
X124930000Y-157290000D02*
X129645000Y-157290000D01*
X129645000Y-157290000D02*
X129815000Y-157460000D01*
X168364000Y-243904000D02*
X167856000Y-243396000D01*
X169380000Y-244920000D02*
X168364000Y-243904000D01*
X167856000Y-243396000D02*
X167856000Y-241618000D01*
X148576194Y-235105177D02*
X148576194Y-234989806D01*
X148576194Y-234989806D02*
X149314000Y-234252000D01*
X162522000Y-241618000D02*
X167856000Y-241618000D01*
X160998000Y-240094000D02*
X162522000Y-241618000D01*
X156680000Y-240094000D02*
X160998000Y-240094000D01*
X155410000Y-238824000D02*
X156680000Y-240094000D01*
X155410000Y-235014000D02*
X155410000Y-238824000D01*
X154648000Y-234252000D02*
X155410000Y-235014000D01*
X149314000Y-234252000D02*
X154648000Y-234252000D01*
X163030000Y-224600000D02*
X163030000Y-227140000D01*
X167856000Y-230188000D02*
X167856000Y-241618000D01*
X166332000Y-228664000D02*
X167856000Y-230188000D01*
X164554000Y-228664000D02*
X166332000Y-228664000D01*
X163030000Y-227140000D02*
X164554000Y-228664000D01*
X156680000Y-204280000D02*
X156680000Y-210630000D01*
X160490000Y-222060000D02*
X163030000Y-224600000D01*
X160490000Y-214440000D02*
X160490000Y-222060000D01*
X156680000Y-210630000D02*
X160490000Y-214440000D01*
X152870000Y-183960000D02*
X152870000Y-196660000D01*
X156680000Y-200470000D02*
X156680000Y-204280000D01*
X152870000Y-196660000D02*
X156680000Y-200470000D01*
X143980000Y-164910000D02*
X143980000Y-168720000D01*
X150330000Y-181420000D02*
X152870000Y-183960000D01*
X150330000Y-175070000D02*
X150330000Y-181420000D01*
X143980000Y-168720000D02*
X150330000Y-175070000D01*
X143980000Y-157290000D02*
X148645000Y-157290000D01*
X148645000Y-157290000D02*
X148815000Y-157460000D01*
X154902000Y-235522000D02*
X154902000Y-239205000D01*
X154394000Y-235014000D02*
X154902000Y-235522000D01*
X149822000Y-235014000D02*
X154394000Y-235014000D01*
X149165138Y-235670862D02*
X149822000Y-235014000D01*
X186779000Y-229299000D02*
X182080000Y-224600000D01*
X186779000Y-242380000D02*
X186779000Y-229299000D01*
X182207000Y-246952000D02*
X186779000Y-242380000D01*
X166713000Y-246952000D02*
X182207000Y-246952000D01*
X161125000Y-241364000D02*
X166713000Y-246952000D01*
X157061000Y-241364000D02*
X161125000Y-241364000D01*
X154902000Y-239205000D02*
X157061000Y-241364000D01*
X149141880Y-235670862D02*
X149165138Y-235670862D01*
X177000000Y-204280000D02*
X177000000Y-215710000D01*
X177000000Y-215710000D02*
X179540000Y-218250000D01*
X179540000Y-218250000D02*
X179540000Y-222060000D01*
X179540000Y-222060000D02*
X182080000Y-224600000D01*
X171920000Y-183960000D02*
X171920000Y-192850000D01*
X174460000Y-201740000D02*
X177000000Y-204280000D01*
X174460000Y-195390000D02*
X174460000Y-201740000D01*
X171920000Y-192850000D02*
X174460000Y-195390000D01*
X163030000Y-164910000D02*
X163030000Y-168720000D01*
X169380000Y-181420000D02*
X171920000Y-183960000D01*
X169380000Y-175070000D02*
X169380000Y-181420000D01*
X163030000Y-168720000D02*
X169380000Y-175070000D01*
X167645000Y-157290000D02*
X167815000Y-157460000D01*
X163030000Y-157290000D02*
X167645000Y-157290000D01*
X150584000Y-235522000D02*
X153505000Y-235522000D01*
X154140000Y-239586000D02*
X156680000Y-242126000D01*
X156680000Y-242126000D02*
X160871000Y-242126000D01*
X160871000Y-242126000D02*
X166332000Y-247587000D01*
X166332000Y-247587000D02*
X182461000Y-247587000D01*
X182461000Y-247587000D02*
X187795000Y-242253000D01*
X187795000Y-242253000D02*
X187795000Y-231966000D01*
X187795000Y-231966000D02*
X191097000Y-228664000D01*
X191097000Y-228664000D02*
X197066000Y-228664000D01*
X201130000Y-224600000D02*
X197066000Y-228664000D01*
X150584000Y-235522000D02*
X149869452Y-236236548D01*
X154140000Y-236157000D02*
X154140000Y-239586000D01*
X153505000Y-235522000D02*
X154140000Y-236157000D01*
X149707565Y-236236548D02*
X149869452Y-236236548D01*
X196050000Y-204280000D02*
X196050000Y-215710000D01*
X196050000Y-215710000D02*
X198590000Y-218250000D01*
X198590000Y-218250000D02*
X198590000Y-222060000D01*
X198590000Y-222060000D02*
X201130000Y-224600000D01*
X190970000Y-183960000D02*
X190970000Y-194120000D01*
X193510000Y-201740000D02*
X196050000Y-204280000D01*
X193510000Y-196660000D02*
X193510000Y-201740000D01*
X190970000Y-194120000D02*
X193510000Y-196660000D01*
X182080000Y-164910000D02*
X182080000Y-167450000D01*
X188430000Y-181420000D02*
X190970000Y-183960000D01*
X188430000Y-173800000D02*
X188430000Y-181420000D01*
X182080000Y-167450000D02*
X188430000Y-173800000D01*
X182080000Y-157290000D02*
X186645000Y-157290000D01*
X186645000Y-157290000D02*
X186815000Y-157460000D01*
X151092000Y-236030000D02*
X152565200Y-236030000D01*
X150319767Y-236802233D02*
X151092000Y-236030000D01*
X153327200Y-236792000D02*
X153327200Y-239789200D01*
X152565200Y-236030000D02*
X153327200Y-236792000D01*
X212560000Y-195390000D02*
X213322000Y-196152000D01*
X210020000Y-192850000D02*
X212560000Y-195390000D01*
X210020000Y-183960000D02*
X210020000Y-192850000D01*
X213322000Y-202502000D02*
X215100000Y-204280000D01*
X213322000Y-196152000D02*
X213322000Y-202502000D01*
X182588000Y-248222000D02*
X182842000Y-248222000D01*
X182842000Y-248222000D02*
X186906000Y-244158000D01*
X186906000Y-244158000D02*
X217386000Y-244158000D01*
X217386000Y-244158000D02*
X218910000Y-242634000D01*
X218910000Y-242634000D02*
X218910000Y-224600000D01*
X153327200Y-239789200D02*
X156553000Y-243015000D01*
X156553000Y-243015000D02*
X160744000Y-243015000D01*
X160744000Y-243015000D02*
X165951000Y-248222000D01*
X165951000Y-248222000D02*
X182588000Y-248222000D01*
X153314500Y-239776500D02*
X153327200Y-239789200D01*
X218910000Y-224600000D02*
X222974000Y-228664000D01*
X222974000Y-228664000D02*
X231737000Y-228664000D01*
X231737000Y-228664000D02*
X236690000Y-233617000D01*
X236690000Y-233617000D02*
X236690000Y-241110000D01*
X236690000Y-241110000D02*
X239230000Y-243650000D01*
X150273250Y-236802233D02*
X150319767Y-236802233D01*
X215100000Y-204280000D02*
X215100000Y-216980000D01*
X215100000Y-216980000D02*
X218910000Y-220790000D01*
X218910000Y-220790000D02*
X218910000Y-224600000D01*
X201130000Y-164910000D02*
X201130000Y-168720000D01*
X207480000Y-181420000D02*
X210020000Y-183960000D01*
X207480000Y-175070000D02*
X207480000Y-181420000D01*
X201130000Y-168720000D02*
X207480000Y-175070000D01*
X201130000Y-157290000D02*
X205645000Y-157290000D01*
X205645000Y-157290000D02*
X205815000Y-157460000D01*
X222720000Y-244793000D02*
X223355000Y-244793000D01*
X233007000Y-244793000D02*
X232880000Y-244793000D01*
X231229000Y-243015000D02*
X233007000Y-244793000D01*
X225133000Y-243015000D02*
X231229000Y-243015000D01*
X223355000Y-244793000D02*
X225133000Y-243015000D01*
X183223000Y-248857000D02*
X183350000Y-248857000D01*
X183350000Y-248857000D02*
X187414000Y-244793000D01*
X254216000Y-247714000D02*
X258280000Y-243650000D01*
X240119000Y-247714000D02*
X254216000Y-247714000D01*
X237198000Y-244793000D02*
X240119000Y-247714000D01*
X187414000Y-244793000D02*
X222720000Y-244793000D01*
X232880000Y-244793000D02*
X237198000Y-244793000D01*
X152611582Y-238193418D02*
X152611582Y-239962582D01*
X165697000Y-248857000D02*
X183223000Y-248857000D01*
X160617000Y-243777000D02*
X165697000Y-248857000D01*
X156426000Y-243777000D02*
X160617000Y-243777000D01*
X152611582Y-239962582D02*
X156426000Y-243777000D01*
X239230000Y-224600000D02*
X239230000Y-226505000D01*
X255740000Y-241110000D02*
X258280000Y-243650000D01*
X255740000Y-229680000D02*
X255740000Y-241110000D01*
X254470000Y-228410000D02*
X255740000Y-229680000D01*
X241135000Y-228410000D02*
X254470000Y-228410000D01*
X239230000Y-226505000D02*
X241135000Y-228410000D01*
X234150000Y-204280000D02*
X234150000Y-214440000D01*
X236690000Y-222060000D02*
X239230000Y-224600000D01*
X236690000Y-216980000D02*
X236690000Y-222060000D01*
X234150000Y-214440000D02*
X236690000Y-216980000D01*
X229070000Y-183960000D02*
X229070000Y-194120000D01*
X231610000Y-201740000D02*
X234150000Y-204280000D01*
X231610000Y-196660000D02*
X231610000Y-201740000D01*
X229070000Y-194120000D02*
X231610000Y-196660000D01*
X220180000Y-164910000D02*
X220180000Y-166180000D01*
X226530000Y-181420000D02*
X229070000Y-183960000D01*
X226530000Y-172530000D02*
X226530000Y-181420000D01*
X220180000Y-166180000D02*
X226530000Y-172530000D01*
X150838936Y-237367918D02*
X151786082Y-237367918D01*
X151786082Y-237367918D02*
X152611582Y-238193418D01*
X152611582Y-238193418D02*
X152616000Y-238197836D01*
X220180000Y-157290000D02*
X224645000Y-157290000D01*
X224645000Y-157290000D02*
X224815000Y-157460000D01*
X223355000Y-245428000D02*
X223609000Y-245428000D01*
X230848000Y-243650000D02*
X232626000Y-245428000D01*
X225387000Y-243650000D02*
X230848000Y-243650000D01*
X223609000Y-245428000D02*
X225387000Y-243650000D01*
X242786000Y-248349000D02*
X272631000Y-248349000D01*
X236944000Y-245428000D02*
X239865000Y-248349000D01*
X239865000Y-248349000D02*
X242786000Y-248349000D01*
X213322000Y-245428000D02*
X223355000Y-245428000D01*
X232626000Y-245428000D02*
X236944000Y-245428000D01*
X272631000Y-248349000D02*
X277330000Y-243650000D01*
X183604000Y-249492000D02*
X183731000Y-249492000D01*
X165316000Y-249492000D02*
X183604000Y-249492000D01*
X160363000Y-244539000D02*
X165316000Y-249492000D01*
X156172000Y-244539000D02*
X160363000Y-244539000D01*
X153759000Y-242126000D02*
X156172000Y-244539000D01*
X150838000Y-242126000D02*
X153759000Y-242126000D01*
X149707565Y-240995565D02*
X150838000Y-242126000D01*
X187795000Y-245428000D02*
X213322000Y-245428000D01*
X213322000Y-245428000D02*
X213449000Y-245428000D01*
X183731000Y-249492000D02*
X187795000Y-245428000D01*
X149707565Y-240903452D02*
X149707565Y-240995565D01*
X258280000Y-224600000D02*
X258280000Y-226505000D01*
X258280000Y-226505000D02*
X260185000Y-228410000D01*
X260185000Y-228410000D02*
X273520000Y-228410000D01*
X273520000Y-228410000D02*
X274790000Y-229680000D01*
X274790000Y-229680000D02*
X274790000Y-241110000D01*
X274790000Y-241110000D02*
X277330000Y-243650000D01*
X253200000Y-204280000D02*
X253200000Y-215710000D01*
X255740000Y-222060000D02*
X258280000Y-224600000D01*
X255740000Y-218250000D02*
X255740000Y-222060000D01*
X253200000Y-215710000D02*
X255740000Y-218250000D01*
X248120000Y-183960000D02*
X248120000Y-195390000D01*
X250660000Y-201740000D02*
X253200000Y-204280000D01*
X250660000Y-197930000D02*
X250660000Y-201740000D01*
X248120000Y-195390000D02*
X250660000Y-197930000D01*
X239230000Y-164910000D02*
X239230000Y-168720000D01*
X245580000Y-181420000D02*
X248120000Y-183960000D01*
X245580000Y-175070000D02*
X245580000Y-181420000D01*
X239230000Y-168720000D02*
X245580000Y-175070000D01*
X239230000Y-157290000D02*
X243645000Y-157290000D01*
X243645000Y-157290000D02*
X243815000Y-157460000D01*
X224117000Y-245936000D02*
X225768000Y-244285000D01*
X230467000Y-244285000D02*
X232118000Y-245936000D01*
X225768000Y-244285000D02*
X230467000Y-244285000D01*
X259042000Y-248984000D02*
X291046000Y-248984000D01*
X236690000Y-245936000D02*
X239738000Y-248984000D01*
X239738000Y-248984000D02*
X259042000Y-248984000D01*
X183985000Y-250000000D02*
X188049000Y-245936000D01*
X149165138Y-241469138D02*
X150457000Y-242761000D01*
X150457000Y-242761000D02*
X153632000Y-242761000D01*
X153632000Y-242761000D02*
X155918699Y-245047699D01*
X155918699Y-245047699D02*
X160109699Y-245047699D01*
X160109699Y-245047699D02*
X165062000Y-250000000D01*
X165062000Y-250000000D02*
X183985000Y-250000000D01*
X188049000Y-245936000D02*
X215989000Y-245936000D01*
X215989000Y-245936000D02*
X224117000Y-245936000D01*
X232118000Y-245936000D02*
X236690000Y-245936000D01*
X291046000Y-248984000D02*
X296380000Y-243650000D01*
X149141880Y-241469138D02*
X149165138Y-241469138D01*
X276060000Y-223330000D02*
X276060000Y-225235000D01*
X276060000Y-225235000D02*
X279235000Y-228410000D01*
X279235000Y-228410000D02*
X292570000Y-228410000D01*
X292570000Y-228410000D02*
X293840000Y-229680000D01*
X293840000Y-229680000D02*
X293840000Y-241110000D01*
X293840000Y-241110000D02*
X296380000Y-243650000D01*
X272250000Y-204280000D02*
X272250000Y-216980000D01*
X276060000Y-220790000D02*
X276060000Y-223330000D01*
X272250000Y-216980000D02*
X276060000Y-220790000D01*
X267170000Y-183960000D02*
X267170000Y-195390000D01*
X269710000Y-201740000D02*
X272250000Y-204280000D01*
X269710000Y-197930000D02*
X269710000Y-201740000D01*
X267170000Y-195390000D02*
X269710000Y-197930000D01*
X258280000Y-164910000D02*
X258280000Y-168720000D01*
X264630000Y-181420000D02*
X267170000Y-183960000D01*
X264630000Y-175070000D02*
X264630000Y-181420000D01*
X258280000Y-168720000D02*
X264630000Y-175070000D01*
X258280000Y-157290000D02*
X262645000Y-157290000D01*
X262645000Y-157290000D02*
X262815000Y-157460000D01*
X306159000Y-228410000D02*
X307937000Y-228410000D01*
X313271000Y-241491000D02*
X315430000Y-243650000D01*
X313271000Y-233744000D02*
X313271000Y-241491000D01*
X307937000Y-228410000D02*
X313271000Y-233744000D01*
X292697000Y-249619000D02*
X309461000Y-249619000D01*
X309461000Y-249619000D02*
X315430000Y-243650000D01*
X292824000Y-249619000D02*
X292697000Y-249619000D01*
X292697000Y-249619000D02*
X246469000Y-249619000D01*
X224498000Y-246444000D02*
X222339000Y-246444000D01*
X224498000Y-246444000D02*
X226022000Y-244920000D01*
X226022000Y-244920000D02*
X230340000Y-244920000D01*
X230340000Y-244920000D02*
X231991000Y-246571000D01*
X231991000Y-246571000D02*
X236563000Y-246571000D01*
X236563000Y-246571000D02*
X239611000Y-249619000D01*
X239611000Y-249619000D02*
X246469000Y-249619000D01*
X222339000Y-246444000D02*
X222466000Y-246444000D01*
X180937000Y-250508000D02*
X184239000Y-250508000D01*
X164808000Y-250508000D02*
X180937000Y-250508000D01*
X159982000Y-245682000D02*
X164808000Y-250508000D01*
X155791000Y-245682000D02*
X159982000Y-245682000D01*
X153505000Y-243396000D02*
X155791000Y-245682000D01*
X149949000Y-243396000D02*
X153505000Y-243396000D01*
X148587823Y-242034823D02*
X149949000Y-243396000D01*
X188303000Y-246444000D02*
X222339000Y-246444000D01*
X184239000Y-250508000D02*
X188303000Y-246444000D01*
X148576194Y-242034823D02*
X148587823Y-242034823D01*
X295110000Y-224600000D02*
X295110000Y-225870000D01*
X295110000Y-225870000D02*
X297650000Y-228410000D01*
X293840000Y-204280000D02*
X293840000Y-213170000D01*
X292570000Y-222060000D02*
X295110000Y-224600000D01*
X292570000Y-214440000D02*
X292570000Y-222060000D01*
X293840000Y-213170000D02*
X292570000Y-214440000D01*
X286220000Y-183960000D02*
X286220000Y-192850000D01*
X290030000Y-200470000D02*
X293840000Y-204280000D01*
X290030000Y-196660000D02*
X290030000Y-200470000D01*
X286220000Y-192850000D02*
X290030000Y-196660000D01*
X277330000Y-164910000D02*
X277330000Y-167450000D01*
X283680000Y-181420000D02*
X286220000Y-183960000D01*
X283680000Y-173800000D02*
X283680000Y-181420000D01*
X277330000Y-167450000D02*
X283680000Y-173800000D01*
X297650000Y-228410000D02*
X306159000Y-228410000D01*
X277330000Y-157290000D02*
X281645000Y-157290000D01*
X281645000Y-157290000D02*
X281815000Y-157460000D01*
X226276000Y-245682000D02*
X226530000Y-245428000D01*
X230340000Y-245682000D02*
X231864000Y-247206000D01*
X236436000Y-247206000D02*
X239484000Y-250254000D01*
X231864000Y-247206000D02*
X236436000Y-247206000D01*
X242786000Y-250254000D02*
X239484000Y-250254000D01*
X212560000Y-247460000D02*
X224498000Y-247460000D01*
X188684000Y-251778000D02*
X193002000Y-247460000D01*
X193002000Y-247460000D02*
X212560000Y-247460000D01*
X182334000Y-251778000D02*
X187922000Y-251778000D01*
X164300000Y-251778000D02*
X182334000Y-251778000D01*
X159474000Y-246952000D02*
X164300000Y-251778000D01*
X155156000Y-246952000D02*
X159474000Y-246952000D01*
X152870000Y-244666000D02*
X155156000Y-246952000D01*
X149060000Y-244666000D02*
X152870000Y-244666000D01*
X149060000Y-244666000D02*
X147560194Y-243166194D01*
X187922000Y-251778000D02*
X188684000Y-251778000D01*
X224498000Y-247460000D02*
X226276000Y-245682000D01*
X230086000Y-245428000D02*
X230340000Y-245682000D01*
X226530000Y-245428000D02*
X230086000Y-245428000D01*
X317589000Y-206439000D02*
X320002000Y-204026000D01*
X309080000Y-187770000D02*
X309080000Y-183960000D01*
X311620000Y-190310000D02*
X309080000Y-187770000D01*
X316954000Y-190310000D02*
X311620000Y-190310000D01*
X320002000Y-193358000D02*
X316954000Y-190310000D01*
X320002000Y-204026000D02*
X320002000Y-193358000D01*
X314160000Y-223330000D02*
X312128000Y-221298000D01*
X312128000Y-211900000D02*
X317589000Y-206439000D01*
X317589000Y-206439000D02*
X317716000Y-206312000D01*
X312128000Y-221298000D02*
X312128000Y-211900000D01*
X321780000Y-233490000D02*
X321780000Y-230950000D01*
X319494000Y-250254000D02*
X326860000Y-242888000D01*
X326860000Y-242888000D02*
X326860000Y-238570000D01*
X326860000Y-238570000D02*
X321780000Y-233490000D01*
X311620000Y-250254000D02*
X278092000Y-250254000D01*
X242786000Y-250254000D02*
X278092000Y-250254000D01*
X311620000Y-250254000D02*
X319494000Y-250254000D01*
X321780000Y-230950000D02*
X314160000Y-223330000D01*
X242786000Y-250254000D02*
X243040000Y-250254000D01*
X147444823Y-243166194D02*
X147560194Y-243166194D01*
X296380000Y-164910000D02*
X296380000Y-168720000D01*
X296380000Y-168720000D02*
X304000000Y-176340000D01*
X304000000Y-176340000D02*
X304000000Y-178880000D01*
X304000000Y-178880000D02*
X309080000Y-183960000D01*
X296380000Y-157290000D02*
X310145000Y-157290000D01*
X310145000Y-157290000D02*
X310315000Y-157460000D01*
X52540000Y-176340000D02*
X57445000Y-176340000D01*
X57445000Y-176340000D02*
X58565000Y-177460000D01*
X76670000Y-176340000D02*
X81195000Y-176340000D01*
X81195000Y-176340000D02*
X82315000Y-177460000D01*
X95720000Y-176340000D02*
X100195000Y-176340000D01*
X100195000Y-176340000D02*
X101315000Y-177460000D01*
X114770000Y-176340000D02*
X119195000Y-176340000D01*
X119195000Y-176340000D02*
X120315000Y-177460000D01*
X133820000Y-176340000D02*
X138195000Y-176340000D01*
X138195000Y-176340000D02*
X139315000Y-177460000D01*
X152870000Y-176340000D02*
X157195000Y-176340000D01*
X157195000Y-176340000D02*
X158315000Y-177460000D01*
X176195000Y-176340000D02*
X177315000Y-177460000D01*
X171920000Y-176340000D02*
X176195000Y-176340000D01*
X190970000Y-176340000D02*
X195195000Y-176340000D01*
X195195000Y-176340000D02*
X196315000Y-177460000D01*
X210020000Y-176340000D02*
X214195000Y-176340000D01*
X214195000Y-176340000D02*
X215315000Y-177460000D01*
X229070000Y-176340000D02*
X233195000Y-176340000D01*
X233195000Y-176340000D02*
X234315000Y-177460000D01*
X248120000Y-176340000D02*
X252195000Y-176340000D01*
X252195000Y-176340000D02*
X253315000Y-177460000D01*
X267170000Y-176340000D02*
X271195000Y-176340000D01*
X271195000Y-176340000D02*
X272315000Y-177460000D01*
X286220000Y-176340000D02*
X290195000Y-176340000D01*
X290195000Y-176340000D02*
X291315000Y-177460000D01*
X309080000Y-176340000D02*
X313945000Y-176340000D01*
X313945000Y-176340000D02*
X315065000Y-177460000D01*
X55080000Y-196660000D02*
X60140000Y-196660000D01*
X60140000Y-196660000D02*
X60940000Y-197460000D01*
X81750000Y-196660000D02*
X86265000Y-196660000D01*
X86265000Y-196660000D02*
X87065000Y-197460000D01*
X100800000Y-196660000D02*
X105265000Y-196660000D01*
X105265000Y-196660000D02*
X106065000Y-197460000D01*
X119850000Y-196660000D02*
X124265000Y-196660000D01*
X124265000Y-196660000D02*
X125065000Y-197460000D01*
X138900000Y-196660000D02*
X143265000Y-196660000D01*
X143265000Y-196660000D02*
X144065000Y-197460000D01*
X156680000Y-196660000D02*
X162265000Y-196660000D01*
X162265000Y-196660000D02*
X163065000Y-197460000D01*
X177000000Y-196660000D02*
X181265000Y-196660000D01*
X181265000Y-196660000D02*
X182065000Y-197460000D01*
X196050000Y-196660000D02*
X200265000Y-196660000D01*
X200265000Y-196660000D02*
X201065000Y-197460000D01*
X215100000Y-196660000D02*
X219265000Y-196660000D01*
X219265000Y-196660000D02*
X220065000Y-197460000D01*
X234150000Y-196660000D02*
X238265000Y-196660000D01*
X238265000Y-196660000D02*
X239065000Y-197460000D01*
X253200000Y-196660000D02*
X257265000Y-196660000D01*
X257265000Y-196660000D02*
X258065000Y-197460000D01*
X272250000Y-196660000D02*
X276265000Y-196660000D01*
X276265000Y-196660000D02*
X277065000Y-197460000D01*
X293840000Y-196660000D02*
X307140000Y-196660000D01*
X307140000Y-196660000D02*
X307940000Y-197460000D01*
X63315000Y-217460000D02*
X63315000Y-215095000D01*
X63315000Y-215095000D02*
X67780000Y-210630000D01*
X86830000Y-215710000D02*
X90065000Y-215710000D01*
X90065000Y-215710000D02*
X91815000Y-217460000D01*
X105880000Y-216980000D02*
X110335000Y-216980000D01*
X110335000Y-216980000D02*
X110815000Y-217460000D01*
X124930000Y-215710000D02*
X128065000Y-215710000D01*
X128065000Y-215710000D02*
X129815000Y-217460000D01*
X143980000Y-215710000D02*
X147065000Y-215710000D01*
X147065000Y-215710000D02*
X148815000Y-217460000D01*
X163030000Y-216980000D02*
X167335000Y-216980000D01*
X167335000Y-216980000D02*
X167815000Y-217460000D01*
X182080000Y-216980000D02*
X186335000Y-216980000D01*
X186335000Y-216980000D02*
X186815000Y-217460000D01*
X201130000Y-216980000D02*
X205335000Y-216980000D01*
X205335000Y-216980000D02*
X205815000Y-217460000D01*
X218910000Y-216980000D02*
X224335000Y-216980000D01*
X224335000Y-216980000D02*
X224815000Y-217460000D01*
X239230000Y-216980000D02*
X243335000Y-216980000D01*
X243335000Y-216980000D02*
X243815000Y-217460000D01*
X258280000Y-216980000D02*
X262335000Y-216980000D01*
X262335000Y-216980000D02*
X262815000Y-217460000D01*
X276060000Y-215710000D02*
X280065000Y-215710000D01*
X280065000Y-215710000D02*
X281815000Y-217460000D01*
X295110000Y-216980000D02*
X300335000Y-216980000D01*
X300335000Y-216980000D02*
X300815000Y-217460000D01*
X50000000Y-243650000D02*
X50000000Y-239840000D01*
X52380000Y-237460000D02*
X56190000Y-237460000D01*
X50000000Y-239840000D02*
X52380000Y-237460000D01*
X79940000Y-237460000D02*
X76510000Y-237460000D01*
X90640000Y-244920000D02*
X93180000Y-242380000D01*
X77940000Y-244920000D02*
X90640000Y-244920000D01*
X75400000Y-242380000D02*
X77940000Y-244920000D01*
X75400000Y-238570000D02*
X75400000Y-242380000D01*
X76510000Y-237460000D02*
X75400000Y-238570000D01*
X103690000Y-237460000D02*
X101910000Y-237460000D01*
X98260000Y-241110000D02*
X98260000Y-243650000D01*
X101910000Y-237460000D02*
X98260000Y-241110000D01*
X169380000Y-237300000D02*
X174780000Y-237300000D01*
X174780000Y-237300000D02*
X174940000Y-237460000D01*
X239230000Y-236030000D02*
X242385000Y-236030000D01*
X242385000Y-236030000D02*
X243815000Y-237460000D01*
X258280000Y-236030000D02*
X261385000Y-236030000D01*
X261385000Y-236030000D02*
X262815000Y-237460000D01*
X277330000Y-236030000D02*
X280385000Y-236030000D01*
X280385000Y-236030000D02*
X281815000Y-237460000D01*
X296380000Y-236030000D02*
X299385000Y-236030000D01*
X299385000Y-236030000D02*
X300815000Y-237460000D01*
X315430000Y-236030000D02*
X318385000Y-236030000D01*
X318385000Y-236030000D02*
X319815000Y-237460000D01*
X314160000Y-215710000D02*
X318065000Y-215710000D01*
X318065000Y-215710000D02*
X319815000Y-217460000D01*
D22*
X44920000Y-245428000D02*
X47460000Y-247968000D01*
X44920000Y-222568000D02*
X44920000Y-172276000D01*
X48476000Y-150940000D02*
X44920000Y-154496000D01*
X44920000Y-154496000D02*
X44920000Y-172276000D01*
X54572000Y-150940000D02*
X48476000Y-150940000D01*
X44920000Y-222568000D02*
X44920000Y-245428000D01*
X141440000Y-255080000D02*
X145250000Y-251270000D01*
X132296000Y-255080000D02*
X141440000Y-255080000D01*
X129756000Y-252540000D02*
X132296000Y-255080000D01*
X125184000Y-252540000D02*
X129756000Y-252540000D01*
X120612000Y-247968000D02*
X125184000Y-252540000D01*
X47460000Y-247968000D02*
X120612000Y-247968000D01*
X198082000Y-229680000D02*
X198082000Y-235268000D01*
X143980000Y-244158000D02*
X148552000Y-239586000D01*
X149521483Y-239586000D02*
X150273250Y-240337767D01*
X148552000Y-239586000D02*
X149521483Y-239586000D01*
X144107000Y-240856000D02*
X144107000Y-240602000D01*
X141948000Y-235268000D02*
X141821000Y-235268000D01*
X143345000Y-233871000D02*
X141948000Y-235268000D01*
X146393000Y-236919000D02*
X145631000Y-236157000D01*
X146393000Y-238316000D02*
X146393000Y-236919000D01*
X144107000Y-240602000D02*
X146393000Y-238316000D01*
X142777918Y-245428936D02*
X142777918Y-245360082D01*
X142777918Y-245360082D02*
X143980000Y-244158000D01*
X143980000Y-244158000D02*
X144107000Y-244031000D01*
X140551000Y-237808000D02*
X138646000Y-237808000D01*
X140805000Y-237554000D02*
X140551000Y-237808000D01*
X144107000Y-240856000D02*
X142964000Y-239713000D01*
X144107000Y-244031000D02*
X144107000Y-240856000D01*
X140515177Y-233973806D02*
X140526806Y-233973806D01*
X140526806Y-233973806D02*
X141821000Y-235268000D01*
X141821000Y-235268000D02*
X143853000Y-235268000D01*
X143853000Y-235268000D02*
X146278565Y-232842435D01*
X146278565Y-232842435D02*
X146313452Y-232842435D01*
X138646000Y-238062000D02*
X138646000Y-237808000D01*
X138646000Y-237808000D02*
X138646000Y-237761483D01*
X138646000Y-237761483D02*
X137686750Y-236802233D01*
X137121064Y-239772082D02*
X137121064Y-239586936D01*
X137121064Y-239586936D02*
X138646000Y-238062000D01*
X160490000Y-229680000D02*
X152870000Y-229680000D01*
X148121685Y-231034202D02*
X146313452Y-232842435D01*
X151515798Y-231034202D02*
X148121685Y-231034202D01*
X152870000Y-229680000D02*
X151515798Y-231034202D01*
X145250000Y-251270000D02*
X145250000Y-247901018D01*
X145250000Y-247901018D02*
X142777918Y-245428936D01*
D23*
X135090000Y-251270000D02*
X135090000Y-245197258D01*
X135090000Y-245197258D02*
X138818120Y-241469138D01*
X137630000Y-251270000D02*
X137630000Y-243650000D01*
X137630000Y-243650000D02*
X139245177Y-242034823D01*
X139245177Y-242034823D02*
X139383806Y-242034823D01*
X140170000Y-251270000D02*
X140170000Y-248730000D01*
X138900000Y-243650000D02*
X139949491Y-242600509D01*
X138900000Y-247460000D02*
X138900000Y-243650000D01*
X140170000Y-248730000D02*
X138900000Y-247460000D01*
X142777918Y-231711064D02*
X142777918Y-224921918D01*
X140424000Y-219179000D02*
X136165000Y-214920000D01*
X140424000Y-222568000D02*
X140424000Y-219179000D01*
X142777918Y-224921918D02*
X140424000Y-222568000D01*
X212306000Y-235268000D02*
X212306000Y-233490000D01*
X212560000Y-233236000D02*
X212560000Y-215315000D01*
X212306000Y-233490000D02*
X212560000Y-233236000D01*
X212560000Y-215315000D02*
X212165000Y-214920000D01*
X136868000Y-215623000D02*
X136165000Y-214920000D01*
X207988000Y-192342000D02*
X203416000Y-187770000D01*
X214084000Y-206058000D02*
X212306000Y-204280000D01*
X212306000Y-204280000D02*
X212306000Y-196660000D01*
X212306000Y-196660000D02*
X207988000Y-192342000D01*
X212814000Y-237808000D02*
X214592000Y-236030000D01*
X214592000Y-236030000D02*
X214592000Y-223584000D01*
X214592000Y-223584000D02*
X213068000Y-222060000D01*
X213068000Y-222060000D02*
X213068000Y-216980000D01*
X213068000Y-216980000D02*
X214084000Y-215964000D01*
X214084000Y-215964000D02*
X214084000Y-208598000D01*
X214084000Y-208598000D02*
X214084000Y-206058000D01*
X203416000Y-187770000D02*
X203416000Y-175671000D01*
X203416000Y-175671000D02*
X202665000Y-174920000D01*
X128486000Y-195136000D02*
X128486000Y-182690000D01*
X132296000Y-201740000D02*
X131788000Y-201232000D01*
X131788000Y-201232000D02*
X131788000Y-198438000D01*
X131788000Y-198438000D02*
X128486000Y-195136000D01*
X141646548Y-232680548D02*
X138646000Y-229680000D01*
X138646000Y-229680000D02*
X138646000Y-223584000D01*
X138646000Y-223584000D02*
X136360000Y-221298000D01*
X136360000Y-221298000D02*
X136360000Y-218758000D01*
X136360000Y-218758000D02*
X132296000Y-214694000D01*
X132296000Y-214694000D02*
X132296000Y-201740000D01*
X127216000Y-181420000D02*
X127216000Y-175471000D01*
X128486000Y-182690000D02*
X127216000Y-181420000D01*
X127216000Y-175471000D02*
X126665000Y-174920000D01*
X141646548Y-232842435D02*
X141646548Y-232680548D01*
X212306000Y-237808000D02*
X212814000Y-237808000D01*
X133820000Y-215202000D02*
X133058000Y-214440000D01*
X137122000Y-218504000D02*
X133820000Y-215202000D01*
X137122000Y-220790000D02*
X137122000Y-218504000D01*
X139408000Y-223076000D02*
X137122000Y-220790000D01*
X139408000Y-229426000D02*
X139408000Y-223076000D01*
X142212233Y-232230233D02*
X139408000Y-229426000D01*
X132296000Y-195801000D02*
X131415000Y-194920000D01*
X132296000Y-200978000D02*
X132296000Y-195801000D01*
X133058000Y-201740000D02*
X132296000Y-200978000D01*
X133058000Y-214440000D02*
X133058000Y-201740000D01*
X142212233Y-232276750D02*
X142212233Y-232230233D01*
X207734000Y-195239000D02*
X207734000Y-212408000D01*
X206210000Y-234252000D02*
X206210000Y-219520000D01*
X206210000Y-219520000D02*
X207734000Y-217996000D01*
X207734000Y-217996000D02*
X207734000Y-212408000D01*
X206210000Y-234252000D02*
X209766000Y-237808000D01*
X207734000Y-195239000D02*
X207415000Y-194920000D01*
X209766000Y-242888000D02*
X204940000Y-242888000D01*
X204940000Y-242888000D02*
X202273000Y-240221000D01*
X202273000Y-240221000D02*
X202273000Y-230569000D01*
X212306000Y-240348000D02*
X209766000Y-242888000D01*
X150330000Y-229680000D02*
X148344517Y-229680000D01*
X148344517Y-229680000D02*
X145747767Y-232276750D01*
X124168000Y-229680000D02*
X129756000Y-229680000D01*
X137399258Y-234252000D02*
X138818120Y-235670862D01*
X134328000Y-234252000D02*
X137399258Y-234252000D01*
X129756000Y-229680000D02*
X134328000Y-234252000D01*
X109182000Y-229680000D02*
X111214000Y-229680000D01*
X137537887Y-235522000D02*
X138252435Y-236236548D01*
X127216000Y-235522000D02*
X137537887Y-235522000D01*
X124930000Y-233236000D02*
X127216000Y-235522000D01*
X114770000Y-233236000D02*
X124930000Y-233236000D01*
X111214000Y-229680000D02*
X114770000Y-233236000D01*
X145182082Y-245428936D02*
X145182082Y-246376082D01*
X154648000Y-248730000D02*
X159220000Y-248730000D01*
X153124000Y-247206000D02*
X154648000Y-248730000D01*
X146012000Y-247206000D02*
X153124000Y-247206000D01*
X145182082Y-246376082D02*
X146012000Y-247206000D01*
X161760000Y-175070000D02*
X155918000Y-169228000D01*
X165316000Y-194120000D02*
X165316000Y-178626000D01*
X165316000Y-178626000D02*
X161760000Y-175070000D01*
X171666000Y-215456000D02*
X170142000Y-213932000D01*
X178778000Y-235522000D02*
X174714000Y-231458000D01*
X174714000Y-231458000D02*
X174714000Y-218504000D01*
X174714000Y-218504000D02*
X171666000Y-215456000D01*
X145747767Y-244909767D02*
X147282000Y-246444000D01*
X170142000Y-198946000D02*
X166840000Y-195644000D01*
X170142000Y-213932000D02*
X170142000Y-198946000D01*
X166840000Y-195644000D02*
X165316000Y-194120000D01*
X155918000Y-169228000D02*
X155918000Y-155673000D01*
X155918000Y-155673000D02*
X155165000Y-154920000D01*
X145747767Y-244863250D02*
X145747767Y-244909767D01*
X187414000Y-251270000D02*
X189954000Y-248730000D01*
X149568000Y-244158000D02*
X148010509Y-242600509D01*
X164554000Y-251270000D02*
X172936000Y-251270000D01*
X159728000Y-246444000D02*
X164554000Y-251270000D01*
X155410000Y-246444000D02*
X159728000Y-246444000D01*
X153124000Y-244158000D02*
X155410000Y-246444000D01*
X149568000Y-244158000D02*
X153124000Y-244158000D01*
X172936000Y-251270000D02*
X187414000Y-251270000D01*
M02*
