G04 #@! TF.FileFunction,Copper,L1,Top,Signal*
%FSLAX46Y46*%
G04 Gerber Fmt 4.6, Leading zero omitted, Abs format (unit mm)*
G04 Created by KiCad (PCBNEW 4.0.6) date Saturday, May 27, 2017 'AMt' 11:31:39 AM*
%MOMM*%
%LPD*%
G01*
G04 APERTURE LIST*
%ADD10C,0.100000*%
%ADD11C,1.400000*%
%ADD12C,1.651000*%
%ADD13R,1.651000X1.651000*%
%ADD14C,1.500000*%
%ADD15C,3.000000*%
%ADD16R,1.700000X1.700000*%
%ADD17O,1.700000X1.700000*%
%ADD18C,1.600000*%
%ADD19O,1.600000X1.600000*%
%ADD20C,2.286000*%
%ADD21C,0.600000*%
%ADD22C,0.400000*%
%ADD23C,0.250000*%
G04 APERTURE END LIST*
D10*
D11*
X157696000Y-238062000D03*
X160196000Y-238062000D03*
X157696000Y-234760000D03*
X160196000Y-234760000D03*
X135090000Y-228410000D03*
X132590000Y-228410000D03*
D12*
X48730000Y-164910000D03*
D13*
X48730000Y-157290000D03*
D12*
X67780000Y-164910000D03*
D13*
X67780000Y-157290000D03*
D12*
X86830000Y-164910000D03*
D13*
X86830000Y-157290000D03*
D12*
X105880000Y-164910000D03*
D13*
X105880000Y-157290000D03*
D12*
X124930000Y-164910000D03*
D13*
X124930000Y-157290000D03*
D12*
X143980000Y-164910000D03*
D13*
X143980000Y-157290000D03*
D12*
X163030000Y-164910000D03*
D13*
X163030000Y-157290000D03*
D12*
X182080000Y-164910000D03*
D13*
X182080000Y-157290000D03*
D12*
X201130000Y-164910000D03*
D13*
X201130000Y-157290000D03*
D12*
X220180000Y-164910000D03*
D13*
X220180000Y-157290000D03*
D12*
X239230000Y-164910000D03*
D13*
X239230000Y-157290000D03*
D12*
X258280000Y-164910000D03*
D13*
X258280000Y-157290000D03*
D12*
X277330000Y-164910000D03*
D13*
X277330000Y-157290000D03*
D12*
X296380000Y-164910000D03*
D13*
X296380000Y-157290000D03*
D12*
X52540000Y-183960000D03*
D13*
X52540000Y-176340000D03*
D12*
X76670000Y-183960000D03*
D13*
X76670000Y-176340000D03*
D12*
X95720000Y-183960000D03*
D13*
X95720000Y-176340000D03*
D12*
X114770000Y-183960000D03*
D13*
X114770000Y-176340000D03*
D12*
X133820000Y-183960000D03*
D13*
X133820000Y-176340000D03*
D12*
X152870000Y-183960000D03*
D13*
X152870000Y-176340000D03*
D12*
X171920000Y-183960000D03*
D13*
X171920000Y-176340000D03*
D12*
X190970000Y-183960000D03*
D13*
X190970000Y-176340000D03*
D12*
X210020000Y-183960000D03*
D13*
X210020000Y-176340000D03*
D12*
X229070000Y-183960000D03*
D13*
X229070000Y-176340000D03*
D12*
X248120000Y-183960000D03*
D13*
X248120000Y-176340000D03*
D12*
X267170000Y-183960000D03*
D13*
X267170000Y-176340000D03*
D12*
X286220000Y-183960000D03*
D13*
X286220000Y-176340000D03*
D12*
X309080000Y-183960000D03*
D13*
X309080000Y-176340000D03*
D12*
X55080000Y-204280000D03*
D13*
X55080000Y-196660000D03*
D12*
X81750000Y-204280000D03*
D13*
X81750000Y-196660000D03*
D12*
X100800000Y-204280000D03*
D13*
X100800000Y-196660000D03*
D12*
X119850000Y-204280000D03*
D13*
X119850000Y-196660000D03*
D12*
X138900000Y-204280000D03*
D13*
X138900000Y-196660000D03*
D12*
X156680000Y-204280000D03*
D13*
X156680000Y-196660000D03*
D12*
X177000000Y-204280000D03*
D13*
X177000000Y-196660000D03*
D12*
X196050000Y-204280000D03*
D13*
X196050000Y-196660000D03*
D12*
X215100000Y-204280000D03*
D13*
X215100000Y-196660000D03*
D12*
X234150000Y-204280000D03*
D13*
X234150000Y-196660000D03*
D12*
X253200000Y-204280000D03*
D13*
X253200000Y-196660000D03*
D12*
X272250000Y-204280000D03*
D13*
X272250000Y-196660000D03*
D12*
X293840000Y-204280000D03*
D13*
X293840000Y-196660000D03*
D12*
X60160000Y-210630000D03*
D13*
X67780000Y-210630000D03*
D12*
X86830000Y-223330000D03*
D13*
X86830000Y-215710000D03*
D12*
X105880000Y-224600000D03*
D13*
X105880000Y-216980000D03*
D12*
X124930000Y-223330000D03*
D13*
X124930000Y-215710000D03*
D12*
X143980000Y-223330000D03*
D13*
X143980000Y-215710000D03*
D12*
X163030000Y-224600000D03*
D13*
X163030000Y-216980000D03*
D12*
X182080000Y-224600000D03*
D13*
X182080000Y-216980000D03*
D12*
X201130000Y-224600000D03*
D13*
X201130000Y-216980000D03*
D12*
X218910000Y-224600000D03*
D13*
X218910000Y-216980000D03*
D12*
X239230000Y-224600000D03*
D13*
X239230000Y-216980000D03*
D12*
X258280000Y-224600000D03*
D13*
X258280000Y-216980000D03*
D12*
X276060000Y-223330000D03*
D13*
X276060000Y-215710000D03*
D12*
X295110000Y-224600000D03*
D13*
X295110000Y-216980000D03*
D12*
X50000000Y-236030000D03*
D13*
X50000000Y-243650000D03*
D12*
X93180000Y-234760000D03*
D13*
X93180000Y-242380000D03*
D12*
X98260000Y-236030000D03*
D13*
X98260000Y-243650000D03*
D12*
X169380000Y-244920000D03*
D13*
X169380000Y-237300000D03*
D12*
X239230000Y-243650000D03*
D13*
X239230000Y-236030000D03*
D12*
X258280000Y-243650000D03*
D13*
X258280000Y-236030000D03*
D12*
X277330000Y-243650000D03*
D13*
X277330000Y-236030000D03*
D12*
X296380000Y-243650000D03*
D13*
X296380000Y-236030000D03*
D12*
X315430000Y-243650000D03*
D13*
X315430000Y-236030000D03*
D12*
X314160000Y-223330000D03*
D13*
X314160000Y-215710000D03*
D14*
X61682000Y-150940000D03*
X59142000Y-150940000D03*
X57112000Y-150940000D03*
X54572000Y-150940000D03*
D15*
X64732000Y-148270000D03*
X51012000Y-148270000D03*
D16*
X212306000Y-235268000D03*
D17*
X209766000Y-235268000D03*
X212306000Y-237808000D03*
X209766000Y-237808000D03*
X212306000Y-240348000D03*
X209766000Y-240348000D03*
D18*
X160490000Y-229680000D03*
D19*
X150330000Y-229680000D03*
D18*
X114008000Y-229680000D03*
D19*
X124168000Y-229680000D03*
D18*
X109182000Y-229680000D03*
D19*
X99022000Y-229680000D03*
D18*
X159220000Y-248730000D03*
D19*
X149060000Y-248730000D03*
D20*
X60165000Y-154920000D03*
X53815000Y-157460000D03*
X79165000Y-154920000D03*
X72815000Y-157460000D03*
X98165000Y-154920000D03*
X91815000Y-157460000D03*
X117165000Y-154920000D03*
X110815000Y-157460000D03*
X136165000Y-154920000D03*
X129815000Y-157460000D03*
X155165000Y-154920000D03*
X148815000Y-157460000D03*
X174165000Y-154920000D03*
X167815000Y-157460000D03*
X193165000Y-154920000D03*
X186815000Y-157460000D03*
X212165000Y-154920000D03*
X205815000Y-157460000D03*
X231165000Y-154920000D03*
X224815000Y-157460000D03*
X250165000Y-154920000D03*
X243815000Y-157460000D03*
X269165000Y-154920000D03*
X262815000Y-157460000D03*
X288165000Y-154920000D03*
X281815000Y-157460000D03*
X316665000Y-154920000D03*
X310315000Y-157460000D03*
X64915000Y-174920000D03*
X58565000Y-177460000D03*
X88665000Y-174920000D03*
X82315000Y-177460000D03*
X107665000Y-174920000D03*
X101315000Y-177460000D03*
X126665000Y-174920000D03*
X120315000Y-177460000D03*
X145665000Y-174920000D03*
X139315000Y-177460000D03*
X164665000Y-174920000D03*
X158315000Y-177460000D03*
X183665000Y-174920000D03*
X177315000Y-177460000D03*
X202665000Y-174920000D03*
X196315000Y-177460000D03*
X221665000Y-174920000D03*
X215315000Y-177460000D03*
X240665000Y-174920000D03*
X234315000Y-177460000D03*
X259665000Y-174920000D03*
X253315000Y-177460000D03*
X278665000Y-174920000D03*
X272315000Y-177460000D03*
X297665000Y-174920000D03*
X291315000Y-177460000D03*
X321415000Y-174920000D03*
X315065000Y-177460000D03*
X67290000Y-194920000D03*
X60940000Y-197460000D03*
X93415000Y-194920000D03*
X87065000Y-197460000D03*
X112415000Y-194920000D03*
X106065000Y-197460000D03*
X131415000Y-194920000D03*
X125065000Y-197460000D03*
X150415000Y-194920000D03*
X144065000Y-197460000D03*
X169415000Y-194920000D03*
X163065000Y-197460000D03*
X188415000Y-194920000D03*
X182065000Y-197460000D03*
X207415000Y-194920000D03*
X201065000Y-197460000D03*
X226415000Y-194920000D03*
X220065000Y-197460000D03*
X245415000Y-194920000D03*
X239065000Y-197460000D03*
X264415000Y-194920000D03*
X258065000Y-197460000D03*
X283415000Y-194920000D03*
X277065000Y-197460000D03*
X314290000Y-194920000D03*
X307940000Y-197460000D03*
X98165000Y-214920000D03*
X91815000Y-217460000D03*
X117165000Y-214920000D03*
X110815000Y-217460000D03*
X136165000Y-214920000D03*
X129815000Y-217460000D03*
X155165000Y-214920000D03*
X148815000Y-217460000D03*
X174165000Y-214920000D03*
X167815000Y-217460000D03*
X193165000Y-214920000D03*
X186815000Y-217460000D03*
X212165000Y-214920000D03*
X205815000Y-217460000D03*
X231165000Y-214920000D03*
X224815000Y-217460000D03*
X250165000Y-214920000D03*
X243815000Y-217460000D03*
X269165000Y-214920000D03*
X262815000Y-217460000D03*
X288165000Y-214920000D03*
X281815000Y-217460000D03*
X62540000Y-234920000D03*
X56190000Y-237460000D03*
X86290000Y-234920000D03*
X79940000Y-237460000D03*
X110040000Y-234920000D03*
X103690000Y-237460000D03*
X181290000Y-234920000D03*
X174940000Y-237460000D03*
X250165000Y-234920000D03*
X243815000Y-237460000D03*
X269165000Y-234920000D03*
X262815000Y-237460000D03*
X288165000Y-234920000D03*
X281815000Y-237460000D03*
X307165000Y-234920000D03*
X300815000Y-237460000D03*
X326165000Y-234920000D03*
X319815000Y-237460000D03*
X326165000Y-214920000D03*
X319815000Y-217460000D03*
D14*
X164300000Y-239840000D03*
X164300000Y-234960000D03*
D16*
X135090000Y-251270000D03*
D17*
X137630000Y-251270000D03*
X140170000Y-251270000D03*
X142710000Y-251270000D03*
X145250000Y-251270000D03*
D20*
X307165000Y-214920000D03*
X300815000Y-217460000D03*
X69665000Y-214920000D03*
X63315000Y-217460000D03*
D21*
X147536000Y-245428000D03*
X149695000Y-245555000D03*
X198082000Y-235268000D03*
X198082000Y-229680000D03*
X143345000Y-233871000D03*
X145631000Y-236157000D03*
X140805000Y-237554000D03*
X142964000Y-239713000D03*
X202273000Y-230569000D03*
X178778000Y-235522000D03*
X147282000Y-246444000D03*
X189954000Y-248730000D03*
D22*
X149060000Y-248730000D02*
X153124000Y-252794000D01*
X197320000Y-252794000D02*
X209766000Y-240348000D01*
X153124000Y-252794000D02*
X197320000Y-252794000D01*
X142710000Y-251270000D02*
X142710000Y-250000000D01*
X143980000Y-248730000D02*
X149060000Y-248730000D01*
X142710000Y-250000000D02*
X143980000Y-248730000D01*
D23*
X75400000Y-245428000D02*
X56096000Y-245428000D01*
X147536000Y-245428000D02*
X127470000Y-245428000D01*
X75400000Y-245428000D02*
X127470000Y-245428000D01*
X50000000Y-239332000D02*
X50000000Y-236030000D01*
X56096000Y-245428000D02*
X50000000Y-239332000D01*
X130772000Y-244666000D02*
X103086000Y-244666000D01*
X149695000Y-245555000D02*
X148806000Y-245555000D01*
X148806000Y-245555000D02*
X147917000Y-244666000D01*
X147917000Y-244666000D02*
X130772000Y-244666000D01*
X103086000Y-244666000D02*
X93180000Y-234760000D01*
D22*
X160490000Y-229680000D02*
X198082000Y-229680000D01*
X198082000Y-235268000D02*
X209766000Y-235268000D01*
X145631000Y-236157000D02*
X143345000Y-233871000D01*
X142964000Y-239713000D02*
X140805000Y-237554000D01*
D23*
X110706000Y-227394000D02*
X111722000Y-227394000D01*
X46444000Y-219012000D02*
X51016000Y-223584000D01*
X51016000Y-223584000D02*
X81750000Y-223584000D01*
X81750000Y-223584000D02*
X85560000Y-227394000D01*
X85560000Y-227394000D02*
X110706000Y-227394000D01*
X46444000Y-206312000D02*
X46444000Y-178880000D01*
X59142000Y-151196000D02*
X56096000Y-154242000D01*
X56096000Y-154242000D02*
X47714000Y-154242000D01*
X47714000Y-154242000D02*
X46444000Y-155512000D01*
X46444000Y-155512000D02*
X46444000Y-178880000D01*
X46444000Y-206312000D02*
X46444000Y-219012000D01*
X111722000Y-227394000D02*
X114008000Y-229680000D01*
X59142000Y-150940000D02*
X59142000Y-151196000D01*
X45428000Y-203010000D02*
X45428000Y-220028000D01*
X57112000Y-151194000D02*
X55080000Y-153226000D01*
X55080000Y-153226000D02*
X46952000Y-153226000D01*
X46952000Y-153226000D02*
X45428000Y-154750000D01*
X45428000Y-154750000D02*
X45428000Y-178626000D01*
X45428000Y-203010000D02*
X45428000Y-178626000D01*
X86322000Y-229680000D02*
X99022000Y-229680000D01*
X81496000Y-224854000D02*
X86322000Y-229680000D01*
X50254000Y-224854000D02*
X81496000Y-224854000D01*
X45428000Y-220028000D02*
X50254000Y-224854000D01*
X57112000Y-150940000D02*
X57112000Y-151194000D01*
X288165000Y-214920000D02*
X288165000Y-213845000D01*
X288165000Y-213845000D02*
X283680000Y-209360000D01*
X281140000Y-209360000D02*
X283680000Y-209360000D01*
X283680000Y-209360000D02*
X292570000Y-209360000D01*
X276060000Y-209360000D02*
X281140000Y-209360000D01*
X304145000Y-211900000D02*
X307165000Y-214920000D01*
X295110000Y-211900000D02*
X304145000Y-211900000D01*
X292570000Y-209360000D02*
X295110000Y-211900000D01*
X269165000Y-214920000D02*
X270500000Y-214920000D01*
X270500000Y-214920000D02*
X276060000Y-209360000D01*
X250165000Y-214920000D02*
X251450000Y-214920000D01*
X251450000Y-214920000D02*
X257010000Y-209360000D01*
X276060000Y-209360000D02*
X257010000Y-209360000D01*
X257010000Y-209360000D02*
X251930000Y-209360000D01*
X251930000Y-209360000D02*
X237960000Y-209360000D01*
X231165000Y-214920000D02*
X232400000Y-214920000D01*
X232400000Y-214920000D02*
X237960000Y-209360000D01*
X212165000Y-214920000D02*
X213350000Y-214920000D01*
X213350000Y-214920000D02*
X218910000Y-209360000D01*
X237960000Y-209360000D02*
X218910000Y-209360000D01*
X218910000Y-209360000D02*
X215100000Y-209360000D01*
X215100000Y-209360000D02*
X199860000Y-209360000D01*
X193165000Y-214920000D02*
X194300000Y-214920000D01*
X194300000Y-214920000D02*
X199860000Y-209360000D01*
X174165000Y-214920000D02*
X175250000Y-214920000D01*
X175250000Y-214920000D02*
X180810000Y-209360000D01*
X199860000Y-209360000D02*
X180810000Y-209360000D01*
X180810000Y-209360000D02*
X161760000Y-209360000D01*
X155165000Y-214920000D02*
X156200000Y-214920000D01*
X156200000Y-214920000D02*
X161760000Y-209360000D01*
X136165000Y-214920000D02*
X137150000Y-214920000D01*
X137150000Y-214920000D02*
X142710000Y-209360000D01*
X161760000Y-209360000D02*
X142710000Y-209360000D01*
X142710000Y-209360000D02*
X131280000Y-209360000D01*
X131280000Y-209360000D02*
X123660000Y-209360000D01*
X117165000Y-214920000D02*
X118100000Y-214920000D01*
X118100000Y-214920000D02*
X123660000Y-209360000D01*
X98165000Y-214920000D02*
X99050000Y-214920000D01*
X99050000Y-214920000D02*
X104610000Y-209360000D01*
X69665000Y-214920000D02*
X69665000Y-213825000D01*
X69665000Y-213825000D02*
X74130000Y-209360000D01*
X74130000Y-209360000D02*
X104610000Y-209360000D01*
X104610000Y-209360000D02*
X123660000Y-209360000D01*
X222212000Y-175467000D02*
X221665000Y-174920000D01*
X297665000Y-174920000D02*
X296230000Y-174920000D01*
X296230000Y-174920000D02*
X292570000Y-171260000D01*
X288760000Y-171260000D02*
X292570000Y-171260000D01*
X292570000Y-171260000D02*
X298920000Y-171260000D01*
X283680000Y-171260000D02*
X288760000Y-171260000D01*
X319025000Y-172530000D02*
X321415000Y-174920000D01*
X300190000Y-172530000D02*
X319025000Y-172530000D01*
X298920000Y-171260000D02*
X300190000Y-172530000D01*
X278665000Y-174920000D02*
X280020000Y-174920000D01*
X280020000Y-174920000D02*
X283680000Y-171260000D01*
X259665000Y-174920000D02*
X260970000Y-174920000D01*
X260970000Y-174920000D02*
X264630000Y-171260000D01*
X240665000Y-174920000D02*
X241920000Y-174920000D01*
X241920000Y-174920000D02*
X245580000Y-171260000D01*
X221665000Y-174920000D02*
X222870000Y-174920000D01*
X222870000Y-174920000D02*
X226530000Y-171260000D01*
X283680000Y-171260000D02*
X264630000Y-171260000D01*
X264630000Y-171260000D02*
X245580000Y-171260000D01*
X245580000Y-171260000D02*
X226530000Y-171260000D01*
X226530000Y-171260000D02*
X223990000Y-171260000D01*
X223990000Y-171260000D02*
X207480000Y-171260000D01*
X202665000Y-174920000D02*
X203820000Y-174920000D01*
X203820000Y-174920000D02*
X207480000Y-171260000D01*
X183665000Y-174920000D02*
X184770000Y-174920000D01*
X184770000Y-174920000D02*
X188430000Y-171260000D01*
X164665000Y-174920000D02*
X165720000Y-174920000D01*
X165720000Y-174920000D02*
X169380000Y-171260000D01*
X207480000Y-171260000D02*
X188430000Y-171260000D01*
X188430000Y-171260000D02*
X169380000Y-171260000D01*
X169380000Y-171260000D02*
X165570000Y-171260000D01*
X165570000Y-171260000D02*
X150330000Y-171260000D01*
X145665000Y-174920000D02*
X146670000Y-174920000D01*
X146670000Y-174920000D02*
X150330000Y-171260000D01*
X126665000Y-174920000D02*
X127620000Y-174920000D01*
X127620000Y-174920000D02*
X131280000Y-171260000D01*
X150330000Y-171260000D02*
X131280000Y-171260000D01*
X131280000Y-171260000D02*
X128740000Y-171260000D01*
X128740000Y-171260000D02*
X113500000Y-171260000D01*
X107665000Y-174920000D02*
X109840000Y-174920000D01*
X109840000Y-174920000D02*
X113500000Y-171260000D01*
X88665000Y-174920000D02*
X90790000Y-174920000D01*
X90790000Y-174920000D02*
X94450000Y-171260000D01*
X64915000Y-174920000D02*
X65390000Y-174920000D01*
X65390000Y-174920000D02*
X69050000Y-171260000D01*
X69050000Y-171260000D02*
X94450000Y-171260000D01*
X94450000Y-171260000D02*
X113500000Y-171260000D01*
X283415000Y-194920000D02*
X285420000Y-194920000D01*
X285420000Y-194920000D02*
X288760000Y-191580000D01*
X279870000Y-191580000D02*
X288760000Y-191580000D01*
X288760000Y-191580000D02*
X295110000Y-191580000D01*
X269710000Y-191580000D02*
X279870000Y-191580000D01*
X310950000Y-191580000D02*
X314290000Y-194920000D01*
X305270000Y-191580000D02*
X310950000Y-191580000D01*
X302730000Y-189040000D02*
X305270000Y-191580000D01*
X297650000Y-189040000D02*
X302730000Y-189040000D01*
X295110000Y-191580000D02*
X297650000Y-189040000D01*
X264415000Y-194920000D02*
X266370000Y-194920000D01*
X266370000Y-194920000D02*
X269710000Y-191580000D01*
X245415000Y-194920000D02*
X247320000Y-194920000D01*
X247320000Y-194920000D02*
X250660000Y-191580000D01*
X226415000Y-194920000D02*
X227000000Y-194920000D01*
X227000000Y-194920000D02*
X230340000Y-191580000D01*
X269710000Y-191580000D02*
X250660000Y-191580000D01*
X250660000Y-191580000D02*
X230340000Y-191580000D01*
X230340000Y-191580000D02*
X221450000Y-191580000D01*
X221450000Y-191580000D02*
X212560000Y-191580000D01*
X207415000Y-194920000D02*
X209220000Y-194920000D01*
X209220000Y-194920000D02*
X212560000Y-191580000D01*
X188415000Y-194920000D02*
X190170000Y-194920000D01*
X190170000Y-194920000D02*
X193510000Y-191580000D01*
X169415000Y-194920000D02*
X171120000Y-194920000D01*
X171120000Y-194920000D02*
X174460000Y-191580000D01*
X212560000Y-191580000D02*
X193510000Y-191580000D01*
X193510000Y-191580000D02*
X174460000Y-191580000D01*
X174460000Y-191580000D02*
X160490000Y-191580000D01*
X160490000Y-191580000D02*
X155410000Y-191580000D01*
X150415000Y-194920000D02*
X152070000Y-194920000D01*
X152070000Y-194920000D02*
X155410000Y-191580000D01*
X131415000Y-194920000D02*
X133020000Y-194920000D01*
X133020000Y-194920000D02*
X136360000Y-191580000D01*
X112415000Y-194920000D02*
X113970000Y-194920000D01*
X113970000Y-194920000D02*
X117310000Y-191580000D01*
X93415000Y-194920000D02*
X94920000Y-194920000D01*
X94920000Y-194920000D02*
X98260000Y-191580000D01*
X67290000Y-194920000D02*
X67290000Y-194610000D01*
X67290000Y-194610000D02*
X70320000Y-191580000D01*
X70320000Y-191580000D02*
X98260000Y-191580000D01*
X98260000Y-191580000D02*
X117310000Y-191580000D01*
X117310000Y-191580000D02*
X136360000Y-191580000D01*
X136360000Y-191580000D02*
X155410000Y-191580000D01*
X202273000Y-229299000D02*
X202273000Y-228537000D01*
X202273000Y-230569000D02*
X202273000Y-229299000D01*
X152108000Y-227902000D02*
X150330000Y-229680000D01*
X201638000Y-227902000D02*
X152108000Y-227902000D01*
X202273000Y-228537000D02*
X201638000Y-227902000D01*
X181826000Y-238570000D02*
X178778000Y-235522000D01*
X147282000Y-246444000D02*
X180302000Y-246444000D01*
X180302000Y-246444000D02*
X181826000Y-244920000D01*
X181826000Y-244920000D02*
X181826000Y-238570000D01*
X288165000Y-154920000D02*
X293670000Y-154920000D01*
X311415000Y-149670000D02*
X316665000Y-154920000D01*
X298920000Y-149670000D02*
X311415000Y-149670000D01*
X293670000Y-154920000D02*
X298920000Y-149670000D01*
X269165000Y-154920000D02*
X288165000Y-154920000D01*
X250165000Y-154920000D02*
X269165000Y-154920000D01*
X231165000Y-154920000D02*
X250165000Y-154920000D01*
X212165000Y-154920000D02*
X231165000Y-154920000D01*
X193165000Y-154920000D02*
X212165000Y-154920000D01*
X174165000Y-154920000D02*
X193165000Y-154920000D01*
X155165000Y-154920000D02*
X174165000Y-154920000D01*
X136165000Y-154920000D02*
X155165000Y-154920000D01*
X117165000Y-154920000D02*
X136165000Y-154920000D01*
X98165000Y-154920000D02*
X117165000Y-154920000D01*
X79165000Y-154920000D02*
X98165000Y-154920000D01*
X60165000Y-154920000D02*
X79165000Y-154920000D01*
X189954000Y-232000000D02*
X189954000Y-236538000D01*
X189954000Y-248730000D02*
X189954000Y-236538000D01*
X189954000Y-232000000D02*
X189954000Y-231966000D01*
X189954000Y-231966000D02*
X189954000Y-232000000D01*
X323050000Y-232000000D02*
X329620000Y-232000000D01*
X328610000Y-214920000D02*
X326165000Y-214920000D01*
X331940000Y-218250000D02*
X328610000Y-214920000D01*
X331940000Y-229680000D02*
X331940000Y-218250000D01*
X329620000Y-232000000D02*
X331940000Y-229680000D01*
X326165000Y-234920000D02*
X326165000Y-234165000D01*
X326165000Y-234165000D02*
X324000000Y-232000000D01*
X324000000Y-232000000D02*
X323050000Y-232000000D01*
X323050000Y-232000000D02*
X310000000Y-232000000D01*
X326165000Y-234920000D02*
X326165000Y-234835000D01*
X307165000Y-234920000D02*
X307165000Y-234835000D01*
X307165000Y-234835000D02*
X310000000Y-232000000D01*
X288165000Y-234920000D02*
X288165000Y-234835000D01*
X288165000Y-234835000D02*
X291000000Y-232000000D01*
X269165000Y-234920000D02*
X269165000Y-234835000D01*
X269165000Y-234835000D02*
X272000000Y-232000000D01*
X310000000Y-232000000D02*
X291000000Y-232000000D01*
X291000000Y-232000000D02*
X272000000Y-232000000D01*
X272000000Y-232000000D02*
X258000000Y-232000000D01*
X258000000Y-232000000D02*
X253000000Y-232000000D01*
X250165000Y-234920000D02*
X250165000Y-234835000D01*
X250165000Y-234835000D02*
X253000000Y-232000000D01*
X194000000Y-232000000D02*
X224000000Y-232000000D01*
X184000000Y-232000000D02*
X189954000Y-232000000D01*
X189954000Y-232000000D02*
X194000000Y-232000000D01*
X235000000Y-232000000D02*
X253000000Y-232000000D01*
X233000000Y-230000000D02*
X235000000Y-232000000D01*
X226000000Y-230000000D02*
X233000000Y-230000000D01*
X224000000Y-232000000D02*
X226000000Y-230000000D01*
X181290000Y-234920000D02*
X181290000Y-234710000D01*
X181290000Y-234710000D02*
X184000000Y-232000000D01*
X113000000Y-232000000D02*
X125000000Y-232000000D01*
X135000000Y-232000000D02*
X184000000Y-232000000D01*
X133000000Y-230000000D02*
X135000000Y-232000000D01*
X127000000Y-230000000D02*
X133000000Y-230000000D01*
X125000000Y-232000000D02*
X127000000Y-230000000D01*
X110040000Y-234920000D02*
X110080000Y-234920000D01*
X110080000Y-234920000D02*
X113000000Y-232000000D01*
X113000000Y-232000000D02*
X95000000Y-232000000D01*
X95000000Y-232000000D02*
X89000000Y-232000000D01*
X86290000Y-234920000D02*
X86290000Y-234710000D01*
X86290000Y-234710000D02*
X89000000Y-232000000D01*
X89000000Y-232000000D02*
X65000000Y-232000000D01*
X65000000Y-232000000D02*
X62540000Y-234460000D01*
X62540000Y-234920000D02*
X62540000Y-234460000D01*
M02*
