G04 #@! TF.FileFunction,Soldermask,Top*
%FSLAX46Y46*%
G04 Gerber Fmt 4.6, Leading zero omitted, Abs format (unit mm)*
G04 Created by KiCad (PCBNEW 4.0.6) date Saturday, May 27, 2017 'AMt' 11:31:39 AM*
%MOMM*%
%LPD*%
G01*
G04 APERTURE LIST*
%ADD10C,0.100000*%
%ADD11C,3.100000*%
%ADD12C,2.600000*%
%ADD13C,1.800000*%
%ADD14C,2.051000*%
%ADD15R,2.051000X2.051000*%
%ADD16C,1.900000*%
%ADD17C,3.400000*%
%ADD18R,2.100000X2.100000*%
%ADD19O,2.100000X2.100000*%
%ADD20C,2.000000*%
%ADD21O,2.000000X2.000000*%
%ADD22C,2.686000*%
G04 APERTURE END LIST*
D10*
D11*
X103975000Y-252794000D03*
X47968000Y-252159000D03*
X276060000Y-253048000D03*
D12*
X238468000Y-188786000D03*
D11*
X71590000Y-148000000D03*
X124168000Y-148000000D03*
X190000000Y-148000000D03*
X257010000Y-148000000D03*
X332956000Y-149924000D03*
X334480000Y-180404000D03*
X334480000Y-210884000D03*
X52286000Y-170752000D03*
X50254000Y-207074000D03*
X332448000Y-252540000D03*
X212052000Y-252032000D03*
X119596000Y-240602000D03*
D13*
X157696000Y-238062000D03*
X160196000Y-238062000D03*
X157696000Y-234760000D03*
X160196000Y-234760000D03*
X135090000Y-228410000D03*
X132590000Y-228410000D03*
D14*
X48730000Y-164910000D03*
D15*
X48730000Y-157290000D03*
D14*
X67780000Y-164910000D03*
D15*
X67780000Y-157290000D03*
D14*
X86830000Y-164910000D03*
D15*
X86830000Y-157290000D03*
D14*
X105880000Y-164910000D03*
D15*
X105880000Y-157290000D03*
D14*
X124930000Y-164910000D03*
D15*
X124930000Y-157290000D03*
D14*
X143980000Y-164910000D03*
D15*
X143980000Y-157290000D03*
D14*
X163030000Y-164910000D03*
D15*
X163030000Y-157290000D03*
D14*
X182080000Y-164910000D03*
D15*
X182080000Y-157290000D03*
D14*
X201130000Y-164910000D03*
D15*
X201130000Y-157290000D03*
D14*
X220180000Y-164910000D03*
D15*
X220180000Y-157290000D03*
D14*
X239230000Y-164910000D03*
D15*
X239230000Y-157290000D03*
D14*
X258280000Y-164910000D03*
D15*
X258280000Y-157290000D03*
D14*
X277330000Y-164910000D03*
D15*
X277330000Y-157290000D03*
D14*
X296380000Y-164910000D03*
D15*
X296380000Y-157290000D03*
D14*
X52540000Y-183960000D03*
D15*
X52540000Y-176340000D03*
D14*
X76670000Y-183960000D03*
D15*
X76670000Y-176340000D03*
D14*
X95720000Y-183960000D03*
D15*
X95720000Y-176340000D03*
D14*
X114770000Y-183960000D03*
D15*
X114770000Y-176340000D03*
D14*
X133820000Y-183960000D03*
D15*
X133820000Y-176340000D03*
D14*
X152870000Y-183960000D03*
D15*
X152870000Y-176340000D03*
D14*
X171920000Y-183960000D03*
D15*
X171920000Y-176340000D03*
D14*
X190970000Y-183960000D03*
D15*
X190970000Y-176340000D03*
D14*
X210020000Y-183960000D03*
D15*
X210020000Y-176340000D03*
D14*
X229070000Y-183960000D03*
D15*
X229070000Y-176340000D03*
D14*
X248120000Y-183960000D03*
D15*
X248120000Y-176340000D03*
D14*
X267170000Y-183960000D03*
D15*
X267170000Y-176340000D03*
D14*
X286220000Y-183960000D03*
D15*
X286220000Y-176340000D03*
D14*
X309080000Y-183960000D03*
D15*
X309080000Y-176340000D03*
D14*
X55080000Y-204280000D03*
D15*
X55080000Y-196660000D03*
D14*
X81750000Y-204280000D03*
D15*
X81750000Y-196660000D03*
D14*
X100800000Y-204280000D03*
D15*
X100800000Y-196660000D03*
D14*
X119850000Y-204280000D03*
D15*
X119850000Y-196660000D03*
D14*
X138900000Y-204280000D03*
D15*
X138900000Y-196660000D03*
D14*
X156680000Y-204280000D03*
D15*
X156680000Y-196660000D03*
D14*
X177000000Y-204280000D03*
D15*
X177000000Y-196660000D03*
D14*
X196050000Y-204280000D03*
D15*
X196050000Y-196660000D03*
D14*
X215100000Y-204280000D03*
D15*
X215100000Y-196660000D03*
D14*
X234150000Y-204280000D03*
D15*
X234150000Y-196660000D03*
D14*
X253200000Y-204280000D03*
D15*
X253200000Y-196660000D03*
D14*
X272250000Y-204280000D03*
D15*
X272250000Y-196660000D03*
D14*
X293840000Y-204280000D03*
D15*
X293840000Y-196660000D03*
D14*
X60160000Y-210630000D03*
D15*
X67780000Y-210630000D03*
D14*
X86830000Y-223330000D03*
D15*
X86830000Y-215710000D03*
D14*
X105880000Y-224600000D03*
D15*
X105880000Y-216980000D03*
D14*
X124930000Y-223330000D03*
D15*
X124930000Y-215710000D03*
D14*
X143980000Y-223330000D03*
D15*
X143980000Y-215710000D03*
D14*
X163030000Y-224600000D03*
D15*
X163030000Y-216980000D03*
D14*
X182080000Y-224600000D03*
D15*
X182080000Y-216980000D03*
D14*
X201130000Y-224600000D03*
D15*
X201130000Y-216980000D03*
D14*
X218910000Y-224600000D03*
D15*
X218910000Y-216980000D03*
D14*
X239230000Y-224600000D03*
D15*
X239230000Y-216980000D03*
D14*
X258280000Y-224600000D03*
D15*
X258280000Y-216980000D03*
D14*
X276060000Y-223330000D03*
D15*
X276060000Y-215710000D03*
D14*
X295110000Y-224600000D03*
D15*
X295110000Y-216980000D03*
D14*
X50000000Y-236030000D03*
D15*
X50000000Y-243650000D03*
D14*
X93180000Y-234760000D03*
D15*
X93180000Y-242380000D03*
D14*
X98260000Y-236030000D03*
D15*
X98260000Y-243650000D03*
D14*
X169380000Y-244920000D03*
D15*
X169380000Y-237300000D03*
D14*
X239230000Y-243650000D03*
D15*
X239230000Y-236030000D03*
D14*
X258280000Y-243650000D03*
D15*
X258280000Y-236030000D03*
D14*
X277330000Y-243650000D03*
D15*
X277330000Y-236030000D03*
D14*
X296380000Y-243650000D03*
D15*
X296380000Y-236030000D03*
D14*
X315430000Y-243650000D03*
D15*
X315430000Y-236030000D03*
D14*
X314160000Y-223330000D03*
D15*
X314160000Y-215710000D03*
D16*
X61682000Y-150940000D03*
X59142000Y-150940000D03*
X57112000Y-150940000D03*
X54572000Y-150940000D03*
D17*
X64732000Y-148270000D03*
X51012000Y-148270000D03*
D18*
X212306000Y-235268000D03*
D19*
X209766000Y-235268000D03*
X212306000Y-237808000D03*
X209766000Y-237808000D03*
X212306000Y-240348000D03*
X209766000Y-240348000D03*
D20*
X160490000Y-229680000D03*
D21*
X150330000Y-229680000D03*
D20*
X114008000Y-229680000D03*
D21*
X124168000Y-229680000D03*
D20*
X109182000Y-229680000D03*
D21*
X99022000Y-229680000D03*
D20*
X159220000Y-248730000D03*
D21*
X149060000Y-248730000D03*
D22*
X60165000Y-154920000D03*
X53815000Y-157460000D03*
X79165000Y-154920000D03*
X72815000Y-157460000D03*
X98165000Y-154920000D03*
X91815000Y-157460000D03*
X117165000Y-154920000D03*
X110815000Y-157460000D03*
X136165000Y-154920000D03*
X129815000Y-157460000D03*
X155165000Y-154920000D03*
X148815000Y-157460000D03*
X174165000Y-154920000D03*
X167815000Y-157460000D03*
X193165000Y-154920000D03*
X186815000Y-157460000D03*
X212165000Y-154920000D03*
X205815000Y-157460000D03*
X231165000Y-154920000D03*
X224815000Y-157460000D03*
X250165000Y-154920000D03*
X243815000Y-157460000D03*
X269165000Y-154920000D03*
X262815000Y-157460000D03*
X288165000Y-154920000D03*
X281815000Y-157460000D03*
X316665000Y-154920000D03*
X310315000Y-157460000D03*
X64915000Y-174920000D03*
X58565000Y-177460000D03*
X88665000Y-174920000D03*
X82315000Y-177460000D03*
X107665000Y-174920000D03*
X101315000Y-177460000D03*
X126665000Y-174920000D03*
X120315000Y-177460000D03*
X145665000Y-174920000D03*
X139315000Y-177460000D03*
X164665000Y-174920000D03*
X158315000Y-177460000D03*
X183665000Y-174920000D03*
X177315000Y-177460000D03*
X202665000Y-174920000D03*
X196315000Y-177460000D03*
X221665000Y-174920000D03*
X215315000Y-177460000D03*
X240665000Y-174920000D03*
X234315000Y-177460000D03*
X259665000Y-174920000D03*
X253315000Y-177460000D03*
X278665000Y-174920000D03*
X272315000Y-177460000D03*
X297665000Y-174920000D03*
X291315000Y-177460000D03*
X321415000Y-174920000D03*
X315065000Y-177460000D03*
X67290000Y-194920000D03*
X60940000Y-197460000D03*
X93415000Y-194920000D03*
X87065000Y-197460000D03*
X112415000Y-194920000D03*
X106065000Y-197460000D03*
X131415000Y-194920000D03*
X125065000Y-197460000D03*
X150415000Y-194920000D03*
X144065000Y-197460000D03*
X169415000Y-194920000D03*
X163065000Y-197460000D03*
X188415000Y-194920000D03*
X182065000Y-197460000D03*
X207415000Y-194920000D03*
X201065000Y-197460000D03*
X226415000Y-194920000D03*
X220065000Y-197460000D03*
X245415000Y-194920000D03*
X239065000Y-197460000D03*
X264415000Y-194920000D03*
X258065000Y-197460000D03*
X283415000Y-194920000D03*
X277065000Y-197460000D03*
X314290000Y-194920000D03*
X307940000Y-197460000D03*
X98165000Y-214920000D03*
X91815000Y-217460000D03*
X117165000Y-214920000D03*
X110815000Y-217460000D03*
X136165000Y-214920000D03*
X129815000Y-217460000D03*
X155165000Y-214920000D03*
X148815000Y-217460000D03*
X174165000Y-214920000D03*
X167815000Y-217460000D03*
X193165000Y-214920000D03*
X186815000Y-217460000D03*
X212165000Y-214920000D03*
X205815000Y-217460000D03*
X231165000Y-214920000D03*
X224815000Y-217460000D03*
X250165000Y-214920000D03*
X243815000Y-217460000D03*
X269165000Y-214920000D03*
X262815000Y-217460000D03*
X288165000Y-214920000D03*
X281815000Y-217460000D03*
X62540000Y-234920000D03*
X56190000Y-237460000D03*
X86290000Y-234920000D03*
X79940000Y-237460000D03*
X110040000Y-234920000D03*
X103690000Y-237460000D03*
X181290000Y-234920000D03*
X174940000Y-237460000D03*
X250165000Y-234920000D03*
X243815000Y-237460000D03*
X269165000Y-234920000D03*
X262815000Y-237460000D03*
X288165000Y-234920000D03*
X281815000Y-237460000D03*
X307165000Y-234920000D03*
X300815000Y-237460000D03*
X326165000Y-234920000D03*
X319815000Y-237460000D03*
X326165000Y-214920000D03*
X319815000Y-217460000D03*
D16*
X164300000Y-239840000D03*
X164300000Y-234960000D03*
D18*
X135090000Y-251270000D03*
D19*
X137630000Y-251270000D03*
X140170000Y-251270000D03*
X142710000Y-251270000D03*
X145250000Y-251270000D03*
D22*
X307165000Y-214920000D03*
X300815000Y-217460000D03*
D11*
X71082000Y-239840000D03*
D12*
X143218000Y-188786000D03*
D22*
X69665000Y-214920000D03*
X63315000Y-217460000D03*
M02*
