G04 #@! TF.FileFunction,Soldermask,Bot*
%FSLAX46Y46*%
G04 Gerber Fmt 4.6, Leading zero omitted, Abs format (unit mm)*
G04 Created by KiCad (PCBNEW 4.0.6) date Saturday, May 27, 2017 'AMt' 11:31:39 AM*
%MOMM*%
%LPD*%
G01*
G04 APERTURE LIST*
%ADD10C,0.100000*%
%ADD11C,3.100000*%
%ADD12C,2.600000*%
%ADD13C,1.800000*%
%ADD14C,2.051000*%
%ADD15R,2.051000X2.051000*%
%ADD16C,1.900000*%
%ADD17C,3.400000*%
%ADD18R,2.100000X2.100000*%
%ADD19O,2.100000X2.100000*%
%ADD20C,2.000000*%
%ADD21O,2.000000X2.000000*%
%ADD22C,2.686000*%
G04 APERTURE END LIST*
D10*
D11*
X103975000Y-252794000D03*
X47968000Y-252159000D03*
X276060000Y-253048000D03*
D12*
X238468000Y-188786000D03*
D11*
X71590000Y-148000000D03*
X124168000Y-148000000D03*
X190000000Y-148000000D03*
X257010000Y-148000000D03*
X332956000Y-149924000D03*
X334480000Y-180404000D03*
X334480000Y-210884000D03*
X52286000Y-170752000D03*
X50254000Y-207074000D03*
X332448000Y-252540000D03*
X212052000Y-252032000D03*
X119596000Y-240602000D03*
D13*
X157696000Y-238062000D03*
X160196000Y-238062000D03*
X157696000Y-234760000D03*
X160196000Y-234760000D03*
X135090000Y-228410000D03*
X132590000Y-228410000D03*
D14*
X48730000Y-164910000D03*
D15*
X48730000Y-157290000D03*
D14*
X67780000Y-164910000D03*
D15*
X67780000Y-157290000D03*
D14*
X86830000Y-164910000D03*
D15*
X86830000Y-157290000D03*
D14*
X105880000Y-164910000D03*
D15*
X105880000Y-157290000D03*
D14*
X124930000Y-164910000D03*
D15*
X124930000Y-157290000D03*
D14*
X143980000Y-164910000D03*
D15*
X143980000Y-157290000D03*
D14*
X163030000Y-164910000D03*
D15*
X163030000Y-157290000D03*
D14*
X182080000Y-164910000D03*
D15*
X182080000Y-157290000D03*
D14*
X201130000Y-164910000D03*
D15*
X201130000Y-157290000D03*
D14*
X220180000Y-164910000D03*
D15*
X220180000Y-157290000D03*
D14*
X239230000Y-164910000D03*
D15*
X239230000Y-157290000D03*
D14*
X258280000Y-164910000D03*
D15*
X258280000Y-157290000D03*
D14*
X277330000Y-164910000D03*
D15*
X277330000Y-157290000D03*
D14*
X296380000Y-164910000D03*
D15*
X296380000Y-157290000D03*
D14*
X52540000Y-183960000D03*
D15*
X52540000Y-176340000D03*
D14*
X76670000Y-183960000D03*
D15*
X76670000Y-176340000D03*
D14*
X95720000Y-183960000D03*
D15*
X95720000Y-176340000D03*
D14*
X114770000Y-183960000D03*
D15*
X114770000Y-176340000D03*
D14*
X133820000Y-183960000D03*
D15*
X133820000Y-176340000D03*
D14*
X152870000Y-183960000D03*
D15*
X152870000Y-176340000D03*
D14*
X171920000Y-183960000D03*
D15*
X171920000Y-176340000D03*
D14*
X190970000Y-183960000D03*
D15*
X190970000Y-176340000D03*
D14*
X210020000Y-183960000D03*
D15*
X210020000Y-176340000D03*
D14*
X229070000Y-183960000D03*
D15*
X229070000Y-176340000D03*
D14*
X248120000Y-183960000D03*
D15*
X248120000Y-176340000D03*
D14*
X267170000Y-183960000D03*
D15*
X267170000Y-176340000D03*
D14*
X286220000Y-183960000D03*
D15*
X286220000Y-176340000D03*
D14*
X309080000Y-183960000D03*
D15*
X309080000Y-176340000D03*
D14*
X55080000Y-204280000D03*
D15*
X55080000Y-196660000D03*
D14*
X81750000Y-204280000D03*
D15*
X81750000Y-196660000D03*
D14*
X100800000Y-204280000D03*
D15*
X100800000Y-196660000D03*
D14*
X119850000Y-204280000D03*
D15*
X119850000Y-196660000D03*
D14*
X138900000Y-204280000D03*
D15*
X138900000Y-196660000D03*
D14*
X156680000Y-204280000D03*
D15*
X156680000Y-196660000D03*
D14*
X177000000Y-204280000D03*
D15*
X177000000Y-196660000D03*
D14*
X196050000Y-204280000D03*
D15*
X196050000Y-196660000D03*
D14*
X215100000Y-204280000D03*
D15*
X215100000Y-196660000D03*
D14*
X234150000Y-204280000D03*
D15*
X234150000Y-196660000D03*
D14*
X253200000Y-204280000D03*
D15*
X253200000Y-196660000D03*
D14*
X272250000Y-204280000D03*
D15*
X272250000Y-196660000D03*
D14*
X293840000Y-204280000D03*
D15*
X293840000Y-196660000D03*
D14*
X60160000Y-210630000D03*
D15*
X67780000Y-210630000D03*
D14*
X86830000Y-223330000D03*
D15*
X86830000Y-215710000D03*
D14*
X105880000Y-224600000D03*
D15*
X105880000Y-216980000D03*
D14*
X124930000Y-223330000D03*
D15*
X124930000Y-215710000D03*
D14*
X143980000Y-223330000D03*
D15*
X143980000Y-215710000D03*
D14*
X163030000Y-224600000D03*
D15*
X163030000Y-216980000D03*
D14*
X182080000Y-224600000D03*
D15*
X182080000Y-216980000D03*
D14*
X201130000Y-224600000D03*
D15*
X201130000Y-216980000D03*
D14*
X218910000Y-224600000D03*
D15*
X218910000Y-216980000D03*
D14*
X239230000Y-224600000D03*
D15*
X239230000Y-216980000D03*
D14*
X258280000Y-224600000D03*
D15*
X258280000Y-216980000D03*
D14*
X276060000Y-223330000D03*
D15*
X276060000Y-215710000D03*
D14*
X295110000Y-224600000D03*
D15*
X295110000Y-216980000D03*
D14*
X50000000Y-236030000D03*
D15*
X50000000Y-243650000D03*
D14*
X93180000Y-234760000D03*
D15*
X93180000Y-242380000D03*
D14*
X98260000Y-236030000D03*
D15*
X98260000Y-243650000D03*
D14*
X169380000Y-244920000D03*
D15*
X169380000Y-237300000D03*
D14*
X239230000Y-243650000D03*
D15*
X239230000Y-236030000D03*
D14*
X258280000Y-243650000D03*
D15*
X258280000Y-236030000D03*
D14*
X277330000Y-243650000D03*
D15*
X277330000Y-236030000D03*
D14*
X296380000Y-243650000D03*
D15*
X296380000Y-236030000D03*
D14*
X315430000Y-243650000D03*
D15*
X315430000Y-236030000D03*
D14*
X314160000Y-223330000D03*
D15*
X314160000Y-215710000D03*
D16*
X61682000Y-150940000D03*
X59142000Y-150940000D03*
X57112000Y-150940000D03*
X54572000Y-150940000D03*
D17*
X64732000Y-148270000D03*
X51012000Y-148270000D03*
D18*
X212306000Y-235268000D03*
D19*
X209766000Y-235268000D03*
X212306000Y-237808000D03*
X209766000Y-237808000D03*
X212306000Y-240348000D03*
X209766000Y-240348000D03*
D20*
X160490000Y-229680000D03*
D21*
X150330000Y-229680000D03*
D20*
X114008000Y-229680000D03*
D21*
X124168000Y-229680000D03*
D20*
X109182000Y-229680000D03*
D21*
X99022000Y-229680000D03*
D20*
X159220000Y-248730000D03*
D21*
X149060000Y-248730000D03*
D22*
X60165000Y-154920000D03*
X53815000Y-157460000D03*
X79165000Y-154920000D03*
X72815000Y-157460000D03*
X98165000Y-154920000D03*
X91815000Y-157460000D03*
X117165000Y-154920000D03*
X110815000Y-157460000D03*
X136165000Y-154920000D03*
X129815000Y-157460000D03*
X155165000Y-154920000D03*
X148815000Y-157460000D03*
X174165000Y-154920000D03*
X167815000Y-157460000D03*
X193165000Y-154920000D03*
X186815000Y-157460000D03*
X212165000Y-154920000D03*
X205815000Y-157460000D03*
X231165000Y-154920000D03*
X224815000Y-157460000D03*
X250165000Y-154920000D03*
X243815000Y-157460000D03*
X269165000Y-154920000D03*
X262815000Y-157460000D03*
X288165000Y-154920000D03*
X281815000Y-157460000D03*
X316665000Y-154920000D03*
X310315000Y-157460000D03*
X64915000Y-174920000D03*
X58565000Y-177460000D03*
X88665000Y-174920000D03*
X82315000Y-177460000D03*
X107665000Y-174920000D03*
X101315000Y-177460000D03*
X126665000Y-174920000D03*
X120315000Y-177460000D03*
X145665000Y-174920000D03*
X139315000Y-177460000D03*
X164665000Y-174920000D03*
X158315000Y-177460000D03*
X183665000Y-174920000D03*
X177315000Y-177460000D03*
X202665000Y-174920000D03*
X196315000Y-177460000D03*
X221665000Y-174920000D03*
X215315000Y-177460000D03*
X240665000Y-174920000D03*
X234315000Y-177460000D03*
X259665000Y-174920000D03*
X253315000Y-177460000D03*
X278665000Y-174920000D03*
X272315000Y-177460000D03*
X297665000Y-174920000D03*
X291315000Y-177460000D03*
X321415000Y-174920000D03*
X315065000Y-177460000D03*
X67290000Y-194920000D03*
X60940000Y-197460000D03*
X93415000Y-194920000D03*
X87065000Y-197460000D03*
X112415000Y-194920000D03*
X106065000Y-197460000D03*
X131415000Y-194920000D03*
X125065000Y-197460000D03*
X150415000Y-194920000D03*
X144065000Y-197460000D03*
X169415000Y-194920000D03*
X163065000Y-197460000D03*
X188415000Y-194920000D03*
X182065000Y-197460000D03*
X207415000Y-194920000D03*
X201065000Y-197460000D03*
X226415000Y-194920000D03*
X220065000Y-197460000D03*
X245415000Y-194920000D03*
X239065000Y-197460000D03*
X264415000Y-194920000D03*
X258065000Y-197460000D03*
X283415000Y-194920000D03*
X277065000Y-197460000D03*
X314290000Y-194920000D03*
X307940000Y-197460000D03*
X98165000Y-214920000D03*
X91815000Y-217460000D03*
X117165000Y-214920000D03*
X110815000Y-217460000D03*
X136165000Y-214920000D03*
X129815000Y-217460000D03*
X155165000Y-214920000D03*
X148815000Y-217460000D03*
X174165000Y-214920000D03*
X167815000Y-217460000D03*
X193165000Y-214920000D03*
X186815000Y-217460000D03*
X212165000Y-214920000D03*
X205815000Y-217460000D03*
X231165000Y-214920000D03*
X224815000Y-217460000D03*
X250165000Y-214920000D03*
X243815000Y-217460000D03*
X269165000Y-214920000D03*
X262815000Y-217460000D03*
X288165000Y-214920000D03*
X281815000Y-217460000D03*
X62540000Y-234920000D03*
X56190000Y-237460000D03*
X86290000Y-234920000D03*
X79940000Y-237460000D03*
X110040000Y-234920000D03*
X103690000Y-237460000D03*
X181290000Y-234920000D03*
X174940000Y-237460000D03*
X250165000Y-234920000D03*
X243815000Y-237460000D03*
X269165000Y-234920000D03*
X262815000Y-237460000D03*
X288165000Y-234920000D03*
X281815000Y-237460000D03*
X307165000Y-234920000D03*
X300815000Y-237460000D03*
X326165000Y-234920000D03*
X319815000Y-237460000D03*
X326165000Y-214920000D03*
X319815000Y-217460000D03*
D10*
G36*
X136113437Y-237032042D02*
X136785188Y-236360291D01*
X138128691Y-237703794D01*
X137456940Y-238375545D01*
X136113437Y-237032042D01*
X136113437Y-237032042D01*
G37*
G36*
X136679123Y-236466357D02*
X137350874Y-235794606D01*
X138694377Y-237138109D01*
X138022626Y-237809860D01*
X136679123Y-236466357D01*
X136679123Y-236466357D01*
G37*
G36*
X137244808Y-235900672D02*
X137916559Y-235228921D01*
X139260062Y-236572424D01*
X138588311Y-237244175D01*
X137244808Y-235900672D01*
X137244808Y-235900672D01*
G37*
G36*
X137810493Y-235334986D02*
X138482244Y-234663235D01*
X139825747Y-236006738D01*
X139153996Y-236678489D01*
X137810493Y-235334986D01*
X137810493Y-235334986D01*
G37*
G36*
X138376179Y-234769301D02*
X139047930Y-234097550D01*
X140391433Y-235441053D01*
X139719682Y-236112804D01*
X138376179Y-234769301D01*
X138376179Y-234769301D01*
G37*
G36*
X138941864Y-234203615D02*
X139613615Y-233531864D01*
X140957118Y-234875367D01*
X140285367Y-235547118D01*
X138941864Y-234203615D01*
X138941864Y-234203615D01*
G37*
G36*
X139507550Y-233637930D02*
X140179301Y-232966179D01*
X141522804Y-234309682D01*
X140851053Y-234981433D01*
X139507550Y-233637930D01*
X139507550Y-233637930D01*
G37*
G36*
X140073235Y-233072244D02*
X140744986Y-232400493D01*
X142088489Y-233743996D01*
X141416738Y-234415747D01*
X140073235Y-233072244D01*
X140073235Y-233072244D01*
G37*
G36*
X140638921Y-232506559D02*
X141310672Y-231834808D01*
X142654175Y-233178311D01*
X141982424Y-233850062D01*
X140638921Y-232506559D01*
X140638921Y-232506559D01*
G37*
G36*
X141204606Y-231940874D02*
X141876357Y-231269123D01*
X143219860Y-232612626D01*
X142548109Y-233284377D01*
X141204606Y-231940874D01*
X141204606Y-231940874D01*
G37*
G36*
X141770291Y-231375188D02*
X142442042Y-230703437D01*
X143785545Y-232046940D01*
X143113794Y-232718691D01*
X141770291Y-231375188D01*
X141770291Y-231375188D01*
G37*
G36*
X145517958Y-230703437D02*
X146189709Y-231375188D01*
X144846206Y-232718691D01*
X144174455Y-232046940D01*
X145517958Y-230703437D01*
X145517958Y-230703437D01*
G37*
G36*
X146083643Y-231269123D02*
X146755394Y-231940874D01*
X145411891Y-233284377D01*
X144740140Y-232612626D01*
X146083643Y-231269123D01*
X146083643Y-231269123D01*
G37*
G36*
X146649328Y-231834808D02*
X147321079Y-232506559D01*
X145977576Y-233850062D01*
X145305825Y-233178311D01*
X146649328Y-231834808D01*
X146649328Y-231834808D01*
G37*
G36*
X147215014Y-232400493D02*
X147886765Y-233072244D01*
X146543262Y-234415747D01*
X145871511Y-233743996D01*
X147215014Y-232400493D01*
X147215014Y-232400493D01*
G37*
G36*
X147780699Y-232966179D02*
X148452450Y-233637930D01*
X147108947Y-234981433D01*
X146437196Y-234309682D01*
X147780699Y-232966179D01*
X147780699Y-232966179D01*
G37*
G36*
X148346385Y-233531864D02*
X149018136Y-234203615D01*
X147674633Y-235547118D01*
X147002882Y-234875367D01*
X148346385Y-233531864D01*
X148346385Y-233531864D01*
G37*
G36*
X148912070Y-234097550D02*
X149583821Y-234769301D01*
X148240318Y-236112804D01*
X147568567Y-235441053D01*
X148912070Y-234097550D01*
X148912070Y-234097550D01*
G37*
G36*
X149477756Y-234663235D02*
X150149507Y-235334986D01*
X148806004Y-236678489D01*
X148134253Y-236006738D01*
X149477756Y-234663235D01*
X149477756Y-234663235D01*
G37*
G36*
X150043441Y-235228921D02*
X150715192Y-235900672D01*
X149371689Y-237244175D01*
X148699938Y-236572424D01*
X150043441Y-235228921D01*
X150043441Y-235228921D01*
G37*
G36*
X150609126Y-235794606D02*
X151280877Y-236466357D01*
X149937374Y-237809860D01*
X149265623Y-237138109D01*
X150609126Y-235794606D01*
X150609126Y-235794606D01*
G37*
G36*
X151174812Y-236360291D02*
X151846563Y-237032042D01*
X150503060Y-238375545D01*
X149831309Y-237703794D01*
X151174812Y-236360291D01*
X151174812Y-236360291D01*
G37*
G36*
X149831309Y-239436206D02*
X150503060Y-238764455D01*
X151846563Y-240107958D01*
X151174812Y-240779709D01*
X149831309Y-239436206D01*
X149831309Y-239436206D01*
G37*
G36*
X149265623Y-240001891D02*
X149937374Y-239330140D01*
X151280877Y-240673643D01*
X150609126Y-241345394D01*
X149265623Y-240001891D01*
X149265623Y-240001891D01*
G37*
G36*
X148699938Y-240567576D02*
X149371689Y-239895825D01*
X150715192Y-241239328D01*
X150043441Y-241911079D01*
X148699938Y-240567576D01*
X148699938Y-240567576D01*
G37*
G36*
X148134253Y-241133262D02*
X148806004Y-240461511D01*
X150149507Y-241805014D01*
X149477756Y-242476765D01*
X148134253Y-241133262D01*
X148134253Y-241133262D01*
G37*
G36*
X147568567Y-241698947D02*
X148240318Y-241027196D01*
X149583821Y-242370699D01*
X148912070Y-243042450D01*
X147568567Y-241698947D01*
X147568567Y-241698947D01*
G37*
G36*
X147002882Y-242264633D02*
X147674633Y-241592882D01*
X149018136Y-242936385D01*
X148346385Y-243608136D01*
X147002882Y-242264633D01*
X147002882Y-242264633D01*
G37*
G36*
X146437196Y-242830318D02*
X147108947Y-242158567D01*
X148452450Y-243502070D01*
X147780699Y-244173821D01*
X146437196Y-242830318D01*
X146437196Y-242830318D01*
G37*
G36*
X145871511Y-243396004D02*
X146543262Y-242724253D01*
X147886765Y-244067756D01*
X147215014Y-244739507D01*
X145871511Y-243396004D01*
X145871511Y-243396004D01*
G37*
G36*
X145305825Y-243961689D02*
X145977576Y-243289938D01*
X147321079Y-244633441D01*
X146649328Y-245305192D01*
X145305825Y-243961689D01*
X145305825Y-243961689D01*
G37*
G36*
X144740140Y-244527374D02*
X145411891Y-243855623D01*
X146755394Y-245199126D01*
X146083643Y-245870877D01*
X144740140Y-244527374D01*
X144740140Y-244527374D01*
G37*
G36*
X144174455Y-245093060D02*
X144846206Y-244421309D01*
X146189709Y-245764812D01*
X145517958Y-246436563D01*
X144174455Y-245093060D01*
X144174455Y-245093060D01*
G37*
G36*
X143113794Y-244421309D02*
X143785545Y-245093060D01*
X142442042Y-246436563D01*
X141770291Y-245764812D01*
X143113794Y-244421309D01*
X143113794Y-244421309D01*
G37*
G36*
X142548109Y-243855623D02*
X143219860Y-244527374D01*
X141876357Y-245870877D01*
X141204606Y-245199126D01*
X142548109Y-243855623D01*
X142548109Y-243855623D01*
G37*
G36*
X141982424Y-243289938D02*
X142654175Y-243961689D01*
X141310672Y-245305192D01*
X140638921Y-244633441D01*
X141982424Y-243289938D01*
X141982424Y-243289938D01*
G37*
G36*
X141416738Y-242724253D02*
X142088489Y-243396004D01*
X140744986Y-244739507D01*
X140073235Y-244067756D01*
X141416738Y-242724253D01*
X141416738Y-242724253D01*
G37*
G36*
X140851053Y-242158567D02*
X141522804Y-242830318D01*
X140179301Y-244173821D01*
X139507550Y-243502070D01*
X140851053Y-242158567D01*
X140851053Y-242158567D01*
G37*
G36*
X140285367Y-241592882D02*
X140957118Y-242264633D01*
X139613615Y-243608136D01*
X138941864Y-242936385D01*
X140285367Y-241592882D01*
X140285367Y-241592882D01*
G37*
G36*
X139719682Y-241027196D02*
X140391433Y-241698947D01*
X139047930Y-243042450D01*
X138376179Y-242370699D01*
X139719682Y-241027196D01*
X139719682Y-241027196D01*
G37*
G36*
X139153996Y-240461511D02*
X139825747Y-241133262D01*
X138482244Y-242476765D01*
X137810493Y-241805014D01*
X139153996Y-240461511D01*
X139153996Y-240461511D01*
G37*
G36*
X138588311Y-239895825D02*
X139260062Y-240567576D01*
X137916559Y-241911079D01*
X137244808Y-241239328D01*
X138588311Y-239895825D01*
X138588311Y-239895825D01*
G37*
G36*
X138022626Y-239330140D02*
X138694377Y-240001891D01*
X137350874Y-241345394D01*
X136679123Y-240673643D01*
X138022626Y-239330140D01*
X138022626Y-239330140D01*
G37*
G36*
X137456940Y-238764455D02*
X138128691Y-239436206D01*
X136785188Y-240779709D01*
X136113437Y-240107958D01*
X137456940Y-238764455D01*
X137456940Y-238764455D01*
G37*
D16*
X164300000Y-239840000D03*
X164300000Y-234960000D03*
D18*
X135090000Y-251270000D03*
D19*
X137630000Y-251270000D03*
X140170000Y-251270000D03*
X142710000Y-251270000D03*
X145250000Y-251270000D03*
D22*
X307165000Y-214920000D03*
X300815000Y-217460000D03*
D11*
X71082000Y-239840000D03*
D12*
X143218000Y-188786000D03*
D22*
X69665000Y-214920000D03*
X63315000Y-217460000D03*
M02*
