  0
SECTION
  2
HEADER
  9
$ANGBASE
  50
0.0
  9
$ANGDIR
  70
  1
  9
$MEASUREMENT
  70
0
  0
ENDSEC
  0
SECTION
  2
TABLES
  0
TABLE
  2
LTYPE
  70
1
  0
LTYPE
  2
CONTINUOUS
  70
0
  3
Solid line
  72
65
  73
0
  40
0.0
  0
ENDTAB
  0
TABLE
  2
STYLE
  70
4
  0
STYLE
  2
KICAD
  70
0
  40
0
  41
1
  42
1
  50
0
  71
0
  3
isocp.shx
  0
STYLE
  2
KICADB
  70
0
  40
0
  41
1
  42
1
  50
0
  71
0
  3
isocp.shx
  0
STYLE
  2
KICADI
  70
0
  40
0
  41
1
  42
1
  50
15
  71
0
  3
isocp.shx
  0
STYLE
  2
KICADBI
  70
0
  40
0
  41
1
  42
1
  50
15
  71
0
  3
isocp.shx
  0
ENDTAB
  0
TABLE
  2
LAYER
  70
30
  0
LAYER
  2
BLACK
  70
0
  62
7
  6
CONTINUOUS
  0
LAYER
  2
GRAY1
  70
0
  62
251
  6
CONTINUOUS
  0
LAYER
  2
GRAY2
  70
0
  62
8
  6
CONTINUOUS
  0
LAYER
  2
GRAY3
  70
0
  62
9
  6
CONTINUOUS
  0
LAYER
  2
WHITE
  70
0
  62
7
  6
CONTINUOUS
  0
LAYER
  2
LYELLOW
  70
0
  62
51
  6
CONTINUOUS
  0
LAYER
  2
BLUE1
  70
0
  62
178
  6
CONTINUOUS
  0
LAYER
  2
GREEN1
  70
0
  62
98
  6
CONTINUOUS
  0
LAYER
  2
CYAN1
  70
0
  62
138
  6
CONTINUOUS
  0
LAYER
  2
RED1
  70
0
  62
18
  6
CONTINUOUS
  0
LAYER
  2
MAGENTA1
  70
0
  62
228
  6
CONTINUOUS
  0
LAYER
  2
BROWN1
  70
0
  62
58
  6
CONTINUOUS
  0
LAYER
  2
BLUE2
  70
0
  62
5
  6
CONTINUOUS
  0
LAYER
  2
GREEN2
  70
0
  62
3
  6
CONTINUOUS
  0
LAYER
  2
CYAN2
  70
0
  62
4
  6
CONTINUOUS
  0
LAYER
  2
RED2
  70
0
  62
1
  6
CONTINUOUS
  0
LAYER
  2
MAGENTA2
  70
0
  62
6
  6
CONTINUOUS
  0
LAYER
  2
BROWN2
  70
0
  62
54
  6
CONTINUOUS
  0
LAYER
  2
BLUE3
  70
0
  62
171
  6
CONTINUOUS
  0
LAYER
  2
GREEN3
  70
0
  62
91
  6
CONTINUOUS
  0
LAYER
  2
CYAN3
  70
0
  62
131
  6
CONTINUOUS
  0
LAYER
  2
RED3
  70
0
  62
11
  6
CONTINUOUS
  0
LAYER
  2
MAGENTA3
  70
0
  62
221
  6
CONTINUOUS
  0
LAYER
  2
YELLOW3
  70
0
  62
2
  6
CONTINUOUS
  0
LAYER
  2
BLUE4
  70
0
  62
5
  6
CONTINUOUS
  0
LAYER
  2
GREEN4
  70
0
  62
3
  6
CONTINUOUS
  0
LAYER
  2
CYAN4
  70
0
  62
4
  6
CONTINUOUS
  0
LAYER
  2
RED4
  70
0
  62
1
  6
CONTINUOUS
  0
LAYER
  2
MAGENTA4
  70
0
  62
6
  6
CONTINUOUS
  0
LAYER
  2
YELLOW4
  70
0
  62
2
  6
CONTINUOUS
  0
ENDTAB
  0
ENDSEC
  0
SECTION
  2
ENTITIES
0
LINE
8
Black
10
335.128
20
-143.926
11
335.132
21
-143.925
0
LINE
8
Black
10
335.132
20
-143.925
11
335.141
21
-143.928
0
LINE
8
Black
10
335.141
20
-143.928
11
335.151
21
-143.93
0
LINE
8
Black
10
335.151
20
-143.93
11
335.154
21
-143.931
0
LINE
8
Black
10
335.154
20
-143.931
11
335.157
21
-143.932
0
LINE
8
Black
10
335.157
20
-143.932
11
335.165
21
-143.938
0
LINE
8
Black
10
335.165
20
-143.938
11
335.173
21
-143.943
0
LINE
8
Black
10
335.173
20
-143.943
11
335.175
21
-143.945
0
LINE
8
Black
10
335.175
20
-143.945
11
335.178
21
-143.947
0
LINE
8
Black
10
335.178
20
-143.947
11
339.178
21
-147.947
0
LINE
8
Black
10
339.178
20
-147.947
11
339.18
21
-147.95
0
LINE
8
Black
10
339.18
20
-147.95
11
339.182
21
-147.952
0
LINE
8
Black
10
339.182
20
-147.952
11
339.187
21
-147.96
0
LINE
8
Black
10
339.187
20
-147.96
11
339.193
21
-147.968
0
LINE
8
Black
10
339.193
20
-147.968
11
339.194
21
-147.971
0
LINE
8
Black
10
339.194
20
-147.971
11
339.195
21
-147.974
0
LINE
8
Black
10
339.195
20
-147.974
11
339.197
21
-147.984
0
LINE
8
Black
10
339.197
20
-147.984
11
339.2
21
-147.993
0
LINE
8
Black
10
339.2
20
-147.993
11
339.199
21
-147.997
0
LINE
8
Black
10
339.199
20
-147.997
11
339.2
21
-148
0
LINE
8
Black
10
339.2
20
-148
11
339.2
21
-253
0
LINE
8
Black
10
339.2
20
-253
11
339.199
21
-253.003
0
LINE
8
Black
10
339.199
20
-253.003
11
339.2
21
-253.007
0
LINE
8
Black
10
339.2
20
-253.007
11
339.197
21
-253.016
0
LINE
8
Black
10
339.197
20
-253.016
11
339.195
21
-253.026
0
LINE
8
Black
10
339.195
20
-253.026
11
339.194
21
-253.029
0
LINE
8
Black
10
339.194
20
-253.029
11
339.193
21
-253.032
0
LINE
8
Black
10
339.193
20
-253.032
11
339.187
21
-253.04
0
LINE
8
Black
10
339.187
20
-253.04
11
339.182
21
-253.048
0
LINE
8
Black
10
339.182
20
-253.048
11
339.18
21
-253.05
0
LINE
8
Black
10
339.18
20
-253.05
11
339.178
21
-253.053
0
LINE
8
Black
10
339.178
20
-253.053
11
335.178
21
-257.053
0
LINE
8
Black
10
335.178
20
-257.053
11
335.175
21
-257.055
0
LINE
8
Black
10
335.175
20
-257.055
11
335.173
21
-257.057
0
LINE
8
Black
10
335.173
20
-257.057
11
335.165
21
-257.062
0
LINE
8
Black
10
335.165
20
-257.062
11
335.157
21
-257.068
0
LINE
8
Black
10
335.157
20
-257.068
11
335.154
21
-257.069
0
LINE
8
Black
10
335.154
20
-257.069
11
335.151
21
-257.07
0
LINE
8
Black
10
335.151
20
-257.07
11
335.141
21
-257.072
0
LINE
8
Black
10
335.141
20
-257.072
11
335.132
21
-257.075
0
LINE
8
Black
10
335.132
20
-257.075
11
335.128
21
-257.074
0
LINE
8
Black
10
335.128
20
-257.074
11
335.125
21
-257.075
0
LINE
8
Black
10
335.125
20
-257.075
11
46.125
21
-257.075
0
LINE
8
Black
10
46.125
20
-257.075
11
46.1217
21
-257.074
0
LINE
8
Black
10
46.1217
20
-257.074
11
46.1185
21
-257.075
0
LINE
8
Black
10
46.1185
20
-257.075
11
46.109
21
-257.072
0
LINE
8
Black
10
46.109
20
-257.072
11
46.0993
21
-257.07
0
LINE
8
Black
10
46.0993
20
-257.07
11
46.0965
21
-257.069
0
LINE
8
Black
10
46.0965
20
-257.069
11
46.0933
21
-257.068
0
LINE
8
Black
10
46.0933
20
-257.068
11
46.0853
21
-257.062
0
LINE
8
Black
10
46.0853
20
-257.062
11
46.0768
21
-257.057
0
LINE
8
Black
10
46.0768
20
-257.057
11
46.0747
21
-257.055
0
LINE
8
Black
10
46.0747
20
-257.055
11
46.072
21
-257.053
0
LINE
8
Black
10
46.072
20
-257.053
11
42.072
21
-253.053
0
LINE
8
Black
10
42.072
20
-253.053
11
42.0701
21
-253.05
0
LINE
8
Black
10
42.0701
20
-253.05
11
42.0675
21
-253.048
0
LINE
8
Black
10
42.0675
20
-253.048
11
42.0626
21
-253.04
0
LINE
8
Black
10
42.0626
20
-253.04
11
42.057
21
-253.032
0
LINE
8
Black
10
42.057
20
-253.032
11
42.0562
21
-253.029
0
LINE
8
Black
10
42.0562
20
-253.029
11
42.0545
21
-253.026
0
LINE
8
Black
10
42.0545
20
-253.026
11
42.0528
21
-253.016
0
LINE
8
Black
10
42.0528
20
-253.016
11
42.0503
21
-253.007
0
LINE
8
Black
10
42.0503
20
-253.007
11
42.0506
21
-253.003
0
LINE
8
Black
10
42.0506
20
-253.003
11
42.05
21
-253
0
LINE
8
Black
10
42.05
20
-253
11
42.05
21
-148
0
LINE
8
Black
10
42.05
20
-148
11
42.0506
21
-147.997
0
LINE
8
Black
10
42.0506
20
-147.997
11
42.0503
21
-147.993
0
LINE
8
Black
10
42.0503
20
-147.993
11
42.0528
21
-147.984
0
LINE
8
Black
10
42.0528
20
-147.984
11
42.0545
21
-147.974
0
LINE
8
Black
10
42.0545
20
-147.974
11
42.0562
21
-147.971
0
LINE
8
Black
10
42.0562
20
-147.971
11
42.057
21
-147.968
0
LINE
8
Black
10
42.057
20
-147.968
11
42.0626
21
-147.96
0
LINE
8
Black
10
42.0626
20
-147.96
11
42.0675
21
-147.952
0
LINE
8
Black
10
42.0675
20
-147.952
11
42.0701
21
-147.95
0
LINE
8
Black
10
42.0701
20
-147.95
11
42.072
21
-147.947
0
LINE
8
Black
10
42.072
20
-147.947
11
46.072
21
-143.947
0
LINE
8
Black
10
46.072
20
-143.947
11
46.0747
21
-143.945
0
LINE
8
Black
10
46.0747
20
-143.945
11
46.0768
21
-143.943
0
LINE
8
Black
10
46.0768
20
-143.943
11
46.0853
21
-143.938
0
LINE
8
Black
10
46.0853
20
-143.938
11
46.0933
21
-143.932
0
LINE
8
Black
10
46.0933
20
-143.932
11
46.0965
21
-143.931
0
LINE
8
Black
10
46.0965
20
-143.931
11
46.0993
21
-143.93
0
LINE
8
Black
10
46.0993
20
-143.93
11
46.109
21
-143.928
0
LINE
8
Black
10
46.109
20
-143.928
11
46.1185
21
-143.925
0
LINE
8
Black
10
46.1185
20
-143.925
11
46.1217
21
-143.926
0
LINE
8
Black
10
46.1217
20
-143.926
11
46.125
21
-143.925
0
LINE
8
Black
10
46.125
20
-143.925
11
335.125
21
-143.925
0
LINE
8
Black
10
335.125
20
-143.925
11
335.128
21
-143.926
0
LINE
8
Black
10
46.1561
20
-144.075
11
42.2
21
-148.031
0
LINE
8
Black
10
42.2
20
-148.031
11
42.2
21
-252.969
0
LINE
8
Black
10
42.2
20
-252.969
11
46.1561
21
-256.925
0
LINE
8
Black
10
46.1561
20
-256.925
11
335.094
21
-256.925
0
LINE
8
Black
10
335.094
20
-256.925
11
339.05
21
-252.969
0
LINE
8
Black
10
339.05
20
-252.969
11
339.05
21
-148.031
0
LINE
8
Black
10
339.05
20
-148.031
11
335.094
21
-144.075
0
LINE
8
Black
10
335.094
20
-144.075
11
46.1561
21
-144.075
  0
ENDSEC
  0
EOF
