M48
;DRILL file {KiCad 4.0.6} date Friday, June 02, 2017 'AMt' 08:51:27 AM
;FORMAT={-:-/ absolute / inch / decimal}
FMAT,2
INCH,TZ
T1C0.067
T2C0.087
T3C0.106
T4C0.120
T5C0.157
%
G90
G05
M72
T1
X2.0687Y-6.2992
X2.1622Y-9.4488
X2.2557Y-7.0866
X2.3492Y-7.874
X2.4427Y-8.6614
X2.4687Y-6.2992
X2.5622Y-9.4488
X2.6557Y-7.0866
X2.7492Y-7.874
X2.8167Y-6.2992
X2.8427Y-8.6614
X3.0972Y-9.4488
X3.1907Y-7.0866
X3.2167Y-6.2992
X3.3778Y-7.874
X3.4972Y-9.4488
X3.5648Y-6.2992
X3.5648Y-8.6614
X3.5907Y-7.0866
X3.7778Y-7.874
X3.9388Y-7.0866
X3.9648Y-6.2992
X3.9648Y-8.6614
X4.0323Y-9.4488
X4.1258Y-7.874
X4.3128Y-6.2992
X4.3128Y-8.6614
X4.3388Y-7.0866
X4.4323Y-9.4488
X4.5258Y-7.874
X4.6868Y-7.0866
X4.7128Y-6.2992
X4.7128Y-8.6614
X4.8738Y-7.874
X5.0608Y-6.2992
X5.0608Y-8.6614
X5.0868Y-7.0866
X5.2738Y-7.874
X5.4348Y-7.0866
X5.4608Y-6.2992
X5.4608Y-8.6614
X5.6219Y-7.874
X5.8089Y-6.2992
X5.8089Y-8.6614
X5.8348Y-7.0866
X6.0219Y-7.874
X6.1829Y-7.0866
X6.2089Y-6.2992
X6.2089Y-8.6614
X6.3699Y-7.874
X6.5569Y-6.2992
X6.5569Y-8.6614
X6.5829Y-7.0866
X6.7699Y-7.874
X6.8374Y-9.4488
X6.9309Y-7.0866
X6.9569Y-6.2992
X6.9569Y-8.6614
X7.1179Y-7.874
X7.2374Y-9.4488
X7.3049Y-6.2992
X7.3049Y-8.6614
X7.3309Y-7.0866
X7.5179Y-7.874
X7.6789Y-7.0866
X7.7049Y-6.2992
X7.7049Y-8.6614
X7.8659Y-7.874
X8.053Y-6.2992
X8.053Y-8.6614
X8.0789Y-7.0866
X8.2659Y-7.874
X8.427Y-7.0866
X8.453Y-6.2992
X8.453Y-8.6614
X8.614Y-7.874
X8.801Y-6.2992
X8.801Y-8.6614
X8.827Y-7.0866
X9.014Y-7.874
X9.175Y-7.0866
X9.201Y-6.2992
X9.201Y-8.6614
X9.362Y-7.874
X9.549Y-6.2992
X9.549Y-8.6614
X9.549Y-9.4488
X9.575Y-7.0866
X9.762Y-7.874
X9.923Y-7.0866
X9.949Y-6.2992
X9.949Y-8.6614
X9.949Y-9.4488
X10.11Y-7.874
X10.297Y-6.2992
X10.297Y-8.6614
X10.297Y-9.4488
X10.323Y-7.0866
X10.51Y-7.874
X10.6711Y-7.0866
X10.697Y-6.2992
X10.697Y-8.6614
X10.697Y-9.4488
X10.8581Y-7.874
X11.0451Y-6.2992
X11.0451Y-8.6614
X11.0451Y-9.4488
X11.0711Y-7.0866
X11.2581Y-7.874
X11.4191Y-7.0866
X11.4451Y-6.2992
X11.4451Y-8.6614
X11.4451Y-9.4488
X11.7931Y-8.6614
X11.7931Y-9.4488
X11.8191Y-7.0866
X12.0736Y-7.874
X12.1671Y-6.2992
X12.1931Y-8.6614
X12.1931Y-9.4488
X12.3541Y-7.0866
X12.4736Y-7.874
X12.5411Y-8.6614
X12.5411Y-9.4488
X12.5671Y-6.2992
X12.7541Y-7.0866
X12.9411Y-8.6614
X12.9411Y-9.4488
T2
X5.6385Y-7.4325
X9.3885Y-7.4325
T3
X1.8885Y-9.9275
X1.9785Y-8.1525
X2.0585Y-6.7225
X2.7985Y-9.4425
X2.8185Y-5.8268
X4.0935Y-9.9525
X4.7085Y-9.4725
X4.8885Y-5.8268
X7.4803Y-5.8268
X8.3485Y-9.9225
X10.1185Y-5.8268
X10.8685Y-9.9625
X13.0885Y-9.9425
X13.1085Y-5.9025
X13.1685Y-7.1025
X13.1685Y-8.3025
T4
X2.1727Y-8.3864
X3.1127Y-8.3864
X5.0674Y-9.1738
X9.0074Y-9.1738
X11.8036Y-7.599
X11.8971Y-6.0242
X12.7436Y-7.599
X12.8371Y-6.0242
T5
X2.1727Y-8.9864
X2.2687Y-6.2992
X2.3622Y-9.4488
X2.4557Y-7.0866
X2.5492Y-7.874
X2.6427Y-8.6614
X3.0167Y-6.2992
X3.1127Y-8.9864
X3.2972Y-9.4488
X3.3907Y-7.0866
X3.5778Y-7.874
X3.7648Y-6.2992
X3.7648Y-8.6614
X4.1388Y-7.0866
X4.2323Y-9.4488
X4.3258Y-7.874
X4.5128Y-6.2992
X4.5128Y-8.6614
X4.8868Y-7.0866
X5.0674Y-9.7738
X5.0738Y-7.874
X5.2608Y-6.2992
X5.2608Y-8.6614
X5.6348Y-7.0866
X5.8219Y-7.874
X6.0089Y-6.2992
X6.0089Y-8.6614
X6.3829Y-7.0866
X6.5699Y-7.874
X6.7569Y-6.2992
X6.7569Y-8.6614
X7.0374Y-9.4488
X7.1309Y-7.0866
X7.3179Y-7.874
X7.5049Y-6.2992
X7.5049Y-8.6614
X7.8789Y-7.0866
X8.0659Y-7.874
X8.253Y-6.2992
X8.253Y-8.6614
X8.627Y-7.0866
X8.814Y-7.874
X9.001Y-6.2992
X9.001Y-8.6614
X9.0074Y-9.7738
X9.375Y-7.0866
X9.562Y-7.874
X9.749Y-6.2992
X9.749Y-8.6614
X9.749Y-9.4488
X10.123Y-7.0866
X10.31Y-7.874
X10.497Y-6.2992
X10.497Y-8.6614
X10.497Y-9.4488
X10.8711Y-7.0866
X11.0581Y-7.874
X11.2451Y-6.2992
X11.2451Y-8.6614
X11.2451Y-9.4488
X11.6191Y-7.0866
X11.8036Y-8.199
X11.8971Y-6.6242
X11.9931Y-8.6614
X11.9931Y-9.4488
X12.2736Y-7.874
X12.3671Y-6.2992
X12.5541Y-7.0866
X12.7411Y-8.6614
X12.7411Y-9.4488
X12.7436Y-8.199
X12.8371Y-6.6242
T0
M30
