M48
;DRILL file {KiCad 4.0.6} date Saturday, May 27, 2017 'AMt' 09:47:28 AM
;FORMAT={-:-/ absolute / inch / decimal}
FMAT,2
INCH,TZ
T1C0.016
T2C0.028
T3C0.031
T4C0.039
T5C0.039
T6C0.059
T7C0.091
T8C0.067
T9C0.087
T10C0.106
T11C0.120
T12C0.157
%
G90
G05
M72
T1
X5.5435Y-9.3525
X5.6285Y-9.4375
X5.6435Y-9.2075
X5.7335Y-9.2975
X5.7985Y-9.7025
X5.8085Y-9.6625
X5.8385Y-9.6525
X7.0385Y-9.2725
X7.4785Y-9.7925
X7.7985Y-9.0425
X7.7985Y-9.2625
X7.9635Y-9.0775
X8.1885Y-7.4525
T2
X5.2201Y-8.9925
X5.3185Y-8.9925
X6.2085Y-9.2425
X6.2085Y-9.3725
X6.3069Y-9.2425
X6.3069Y-9.3725
T3
X3.8985Y-9.0425
X4.2985Y-9.0425
X4.4885Y-9.0425
X4.8885Y-9.0425
X5.8685Y-9.7925
X5.9185Y-9.0425
X6.2685Y-9.7925
X6.3185Y-9.0425
X6.4685Y-9.2504
X6.4685Y-9.4425
T4
X1.9185Y-6.1925
X1.9185Y-6.4925
X1.9685Y-9.2925
X1.9685Y-9.5925
X2.0685Y-6.9425
X2.0685Y-7.2425
X2.1685Y-7.7425
X2.1685Y-8.0425
X2.3685Y-8.2925
X2.6685Y-6.1925
X2.6685Y-6.4925
X2.6685Y-8.2925
X3.0185Y-6.9425
X3.0185Y-7.2425
X3.2185Y-7.7425
X3.2185Y-8.0425
X3.4185Y-6.1925
X3.4185Y-6.4925
X3.4185Y-8.4925
X3.4185Y-8.7925
X3.6685Y-9.2425
X3.6685Y-9.5425
X3.7685Y-6.9425
X3.7685Y-7.2425
X3.8685Y-9.2925
X3.8685Y-9.5925
X3.9685Y-7.7425
X3.9685Y-8.0425
X4.1685Y-6.1925
X4.1685Y-6.4925
X4.1685Y-8.5425
X4.1685Y-8.8425
X4.5185Y-6.9425
X4.5185Y-7.2425
X4.7185Y-7.7425
X4.7185Y-8.0425
X4.9185Y-6.1925
X4.9185Y-6.4925
X4.9185Y-8.4925
X4.9185Y-8.7925
X5.2685Y-6.9425
X5.2685Y-7.2425
X5.4685Y-7.7425
X5.4685Y-8.0425
X5.6685Y-6.1925
X5.6685Y-6.4925
X5.6685Y-8.4925
X5.6685Y-8.7925
X6.0185Y-6.9425
X6.0185Y-7.2425
X6.1685Y-7.7425
X6.1685Y-8.0425
X6.4185Y-6.1925
X6.4185Y-6.4925
X6.4185Y-8.5425
X6.4185Y-8.8425
X6.6685Y-9.3425
X6.6685Y-9.6425
X6.7685Y-6.9425
X6.7685Y-7.2425
X6.9685Y-7.7425
X6.9685Y-8.0425
X7.1685Y-6.1925
X7.1685Y-6.4925
X7.1685Y-8.5425
X7.1685Y-8.8425
X7.5185Y-6.9425
X7.5185Y-7.2425
X7.7185Y-7.7425
X7.7185Y-8.0425
X7.9185Y-6.1925
X7.9185Y-6.4925
X7.9185Y-8.5425
X7.9185Y-8.8425
X8.2685Y-6.9425
X8.2685Y-7.2425
X8.4685Y-7.7425
X8.4685Y-8.0425
X8.6185Y-8.5425
X8.6185Y-8.8425
X8.6685Y-6.1925
X8.6685Y-6.4925
X9.0185Y-6.9425
X9.0185Y-7.2425
X9.2185Y-7.7425
X9.2185Y-8.0425
X9.4185Y-6.1925
X9.4185Y-6.4925
X9.4185Y-8.5425
X9.4185Y-8.8425
X9.4185Y-9.2925
X9.4185Y-9.5925
X9.7685Y-6.9425
X9.7685Y-7.2425
X9.9685Y-7.7425
X9.9685Y-8.0425
X10.1685Y-6.1925
X10.1685Y-6.4925
X10.1685Y-8.5425
X10.1685Y-8.8425
X10.1685Y-9.2925
X10.1685Y-9.5925
X10.5185Y-6.9425
X10.5185Y-7.2425
X10.7185Y-7.7425
X10.7185Y-8.0425
X10.8685Y-8.4925
X10.8685Y-8.7925
X10.9185Y-6.1925
X10.9185Y-6.4925
X10.9185Y-9.2925
X10.9185Y-9.5925
X11.2685Y-6.9425
X11.2685Y-7.2425
X11.5685Y-7.7425
X11.5685Y-8.0425
X11.6185Y-8.5425
X11.6185Y-8.8425
X11.6685Y-6.1925
X11.6685Y-6.4925
X11.6685Y-9.2925
X11.6685Y-9.5925
X12.1685Y-6.9425
X12.1685Y-7.2425
X12.3685Y-8.4925
X12.3685Y-8.7925
X12.4185Y-9.2925
X12.4185Y-9.5925
T5
X2.1485Y-5.9425
X2.2485Y-5.9425
X2.3284Y-5.9425
X2.4284Y-5.9425
X5.3185Y-9.8925
X5.4185Y-9.8925
X5.5185Y-9.8925
X5.6185Y-9.8925
X5.7185Y-9.8925
X8.2585Y-9.2625
X8.2585Y-9.3625
X8.2585Y-9.4625
X8.3585Y-9.2625
X8.3585Y-9.3625
X8.3585Y-9.4625
T6
X2.1187Y-6.1992
X2.2122Y-9.3488
X2.3057Y-6.9866
X2.3687Y-6.0992
X2.3992Y-7.774
X2.4622Y-9.2488
X2.4927Y-8.5614
X2.5557Y-6.8866
X2.6492Y-7.674
X2.7427Y-8.4614
X2.8667Y-6.1992
X3.1167Y-6.0992
X3.1472Y-9.3488
X3.2407Y-6.9866
X3.3972Y-9.2488
X3.4278Y-7.774
X3.4907Y-6.8866
X3.6148Y-6.1992
X3.6148Y-8.5614
X3.6778Y-7.674
X3.8648Y-6.0992
X3.8648Y-8.4614
X3.9888Y-6.9866
X4.0823Y-9.3488
X4.1758Y-7.774
X4.2388Y-6.8866
X4.3323Y-9.2488
X4.3628Y-6.1992
X4.3628Y-8.5614
X4.4258Y-7.674
X4.6128Y-6.0992
X4.6128Y-8.4614
X4.7368Y-6.9866
X4.9238Y-7.774
X4.9868Y-6.8866
X5.1108Y-6.1992
X5.1108Y-8.5614
X5.1738Y-7.674
X5.3608Y-6.0992
X5.3608Y-8.4614
X5.4848Y-6.9866
X5.6719Y-7.774
X5.7348Y-6.8866
X5.8589Y-6.1992
X5.8589Y-8.5614
X5.9219Y-7.674
X6.1089Y-6.0992
X6.1089Y-8.4614
X6.2329Y-6.9866
X6.4199Y-7.774
X6.4829Y-6.8866
X6.6069Y-6.1992
X6.6069Y-8.5614
X6.6699Y-7.674
X6.8569Y-6.0992
X6.8569Y-8.4614
X6.8874Y-9.3488
X6.9809Y-6.9866
X7.1374Y-9.2488
X7.1679Y-7.774
X7.2309Y-6.8866
X7.3549Y-6.1992
X7.3549Y-8.5614
X7.4179Y-7.674
X7.6049Y-6.0992
X7.6049Y-8.4614
X7.7289Y-6.9866
X7.9159Y-7.774
X7.9789Y-6.8866
X8.103Y-6.1992
X8.103Y-8.5614
X8.1659Y-7.674
X8.353Y-6.0992
X8.353Y-8.4614
X8.477Y-6.9866
X8.664Y-7.774
X8.727Y-6.8866
X8.851Y-6.1992
X8.851Y-8.5614
X8.914Y-7.674
X9.101Y-6.0992
X9.101Y-8.4614
X9.225Y-6.9866
X9.412Y-7.774
X9.475Y-6.8866
X9.599Y-6.1992
X9.599Y-8.5614
X9.599Y-9.3488
X9.662Y-7.674
X9.849Y-6.0992
X9.849Y-8.4614
X9.849Y-9.2488
X9.973Y-6.9866
X10.16Y-7.774
X10.223Y-6.8866
X10.347Y-6.1992
X10.347Y-8.5614
X10.347Y-9.3488
X10.41Y-7.674
X10.597Y-6.0992
X10.597Y-8.4614
X10.597Y-9.2488
X10.7211Y-6.9866
X10.9081Y-7.774
X10.9711Y-6.8866
X11.0951Y-6.1992
X11.0951Y-8.5614
X11.0951Y-9.3488
X11.1581Y-7.674
X11.3451Y-6.0992
X11.3451Y-8.4614
X11.3451Y-9.2488
X11.4691Y-6.9866
X11.7191Y-6.8866
X11.8431Y-8.5614
X11.8431Y-9.3488
X12.0931Y-8.4614
X12.0931Y-9.2488
X12.1236Y-7.774
X12.2171Y-6.1992
X12.3736Y-7.674
X12.4041Y-6.9866
X12.4671Y-6.0992
X12.5911Y-8.5614
X12.5911Y-9.3488
X12.6541Y-6.8866
X12.8411Y-8.4614
X12.8411Y-9.2488
T7
X2.0083Y-5.8374
X2.5485Y-5.8374
T8
X2.0687Y-6.2992
X2.1622Y-9.4488
X2.2557Y-7.0866
X2.3492Y-7.874
X2.4427Y-8.6614
X2.4687Y-6.2992
X2.5622Y-9.4488
X2.6557Y-7.0866
X2.7492Y-7.874
X2.8167Y-6.2992
X2.8427Y-8.6614
X3.0972Y-9.4488
X3.1907Y-7.0866
X3.2167Y-6.2992
X3.3778Y-7.874
X3.4972Y-9.4488
X3.5648Y-6.2992
X3.5648Y-8.6614
X3.5907Y-7.0866
X3.7778Y-7.874
X3.9388Y-7.0866
X3.9648Y-6.2992
X3.9648Y-8.6614
X4.0323Y-9.4488
X4.1258Y-7.874
X4.3128Y-6.2992
X4.3128Y-8.6614
X4.3388Y-7.0866
X4.4323Y-9.4488
X4.5258Y-7.874
X4.6868Y-7.0866
X4.7128Y-6.2992
X4.7128Y-8.6614
X4.8738Y-7.874
X5.0608Y-6.2992
X5.0608Y-8.6614
X5.0868Y-7.0866
X5.2738Y-7.874
X5.4348Y-7.0866
X5.4608Y-6.2992
X5.4608Y-8.6614
X5.6219Y-7.874
X5.8089Y-6.2992
X5.8089Y-8.6614
X5.8348Y-7.0866
X6.0219Y-7.874
X6.1829Y-7.0866
X6.2089Y-6.2992
X6.2089Y-8.6614
X6.3699Y-7.874
X6.5569Y-6.2992
X6.5569Y-8.6614
X6.5829Y-7.0866
X6.7699Y-7.874
X6.8374Y-9.4488
X6.9309Y-7.0866
X6.9569Y-6.2992
X6.9569Y-8.6614
X7.1179Y-7.874
X7.2374Y-9.4488
X7.3049Y-6.2992
X7.3049Y-8.6614
X7.3309Y-7.0866
X7.5179Y-7.874
X7.6789Y-7.0866
X7.7049Y-6.2992
X7.7049Y-8.6614
X7.8659Y-7.874
X8.053Y-6.2992
X8.053Y-8.6614
X8.0789Y-7.0866
X8.2659Y-7.874
X8.427Y-7.0866
X8.453Y-6.2992
X8.453Y-8.6614
X8.614Y-7.874
X8.801Y-6.2992
X8.801Y-8.6614
X8.827Y-7.0866
X9.014Y-7.874
X9.175Y-7.0866
X9.201Y-6.2992
X9.201Y-8.6614
X9.362Y-7.874
X9.549Y-6.2992
X9.549Y-8.6614
X9.549Y-9.4488
X9.575Y-7.0866
X9.762Y-7.874
X9.923Y-7.0866
X9.949Y-6.2992
X9.949Y-8.6614
X9.949Y-9.4488
X10.11Y-7.874
X10.297Y-6.2992
X10.297Y-8.6614
X10.297Y-9.4488
X10.323Y-7.0866
X10.51Y-7.874
X10.6711Y-7.0866
X10.697Y-6.2992
X10.697Y-8.6614
X10.697Y-9.4488
X10.8581Y-7.874
X11.0451Y-6.2992
X11.0451Y-8.6614
X11.0451Y-9.4488
X11.0711Y-7.0866
X11.2581Y-7.874
X11.4191Y-7.0866
X11.4451Y-6.2992
X11.4451Y-8.6614
X11.4451Y-9.4488
X11.7931Y-8.6614
X11.7931Y-9.4488
X11.8191Y-7.0866
X12.0736Y-7.874
X12.1671Y-6.2992
X12.1931Y-8.6614
X12.1931Y-9.4488
X12.3541Y-7.0866
X12.4736Y-7.874
X12.5411Y-8.6614
X12.5411Y-9.4488
X12.5671Y-6.2992
X12.7541Y-7.0866
X12.9411Y-8.6614
X12.9411Y-9.4488
T9
X5.6385Y-7.4325
X9.3885Y-7.4325
T10
X1.8885Y-9.9275
X1.9785Y-8.1525
X2.0585Y-6.7225
X2.7985Y-9.4425
X2.8185Y-5.8268
X4.0935Y-9.9525
X4.7085Y-9.4725
X4.8885Y-5.8268
X7.4803Y-5.8268
X8.3485Y-9.9225
X10.1185Y-5.8268
X10.8685Y-9.9625
X13.0885Y-9.9425
X13.1085Y-5.9025
X13.1685Y-7.1025
X13.1685Y-8.3025
T11
X5.0674Y-9.1738
X9.0074Y-9.1738
X11.8036Y-7.599
X11.8971Y-6.0242
X12.7436Y-7.599
X12.8371Y-6.0242
T12
X2.2687Y-6.2992
X2.3622Y-9.4488
X2.4557Y-7.0866
X2.5492Y-7.874
X2.6427Y-8.6614
X3.0167Y-6.2992
X3.2972Y-9.4488
X3.3907Y-7.0866
X3.5778Y-7.874
X3.7648Y-6.2992
X3.7648Y-8.6614
X4.1388Y-7.0866
X4.2323Y-9.4488
X4.3258Y-7.874
X4.5128Y-6.2992
X4.5128Y-8.6614
X4.8868Y-7.0866
X5.0674Y-9.7738
X5.0738Y-7.874
X5.2608Y-6.2992
X5.2608Y-8.6614
X5.6348Y-7.0866
X5.8219Y-7.874
X6.0089Y-6.2992
X6.0089Y-8.6614
X6.3829Y-7.0866
X6.5699Y-7.874
X6.7569Y-6.2992
X6.7569Y-8.6614
X7.0374Y-9.4488
X7.1309Y-7.0866
X7.3179Y-7.874
X7.5049Y-6.2992
X7.5049Y-8.6614
X7.8789Y-7.0866
X8.0659Y-7.874
X8.253Y-6.2992
X8.253Y-8.6614
X8.627Y-7.0866
X8.814Y-7.874
X9.001Y-6.2992
X9.001Y-8.6614
X9.0074Y-9.7738
X9.375Y-7.0866
X9.562Y-7.874
X9.749Y-6.2992
X9.749Y-8.6614
X9.749Y-9.4488
X10.123Y-7.0866
X10.31Y-7.874
X10.497Y-6.2992
X10.497Y-8.6614
X10.497Y-9.4488
X10.8711Y-7.0866
X11.0581Y-7.874
X11.2451Y-6.2992
X11.2451Y-8.6614
X11.2451Y-9.4488
X11.6191Y-7.0866
X11.8036Y-8.199
X11.8971Y-6.6242
X11.9931Y-8.6614
X11.9931Y-9.4488
X12.2736Y-7.874
X12.3671Y-6.2992
X12.5541Y-7.0866
X12.7411Y-8.6614
X12.7411Y-9.4488
X12.7436Y-8.199
X12.8371Y-6.6242
T0
M30
